  0
SECTION
  2
HEADER
  9
$ACADVER
  1
AC1014
  9
$HANDSEED
  5
FFFF
  9
$INSUNITS
 70
     4
  9
$MEASUREMENT
 70
     1
  0
ENDSEC
  0
SECTION
  2
TABLES
  0
TABLE
  2
VPORT
  5
8
330
0
100
AcDbSymbolTable
 70
     4
  0
VPORT
  5
2E
330
8
100
AcDbSymbolTableRecord
100
AcDbViewportTableRecord
  2
*ACTIVE
 70
     0
 10
0.0
 20
0.0
 11
1.0
 21
1.0
 12
210.0
 22
148.5
 13
0.0
 23
0.0
 14
10.0
 24
10.0
 15
10.0
 25
10.0
 16
0.0
 26
0.0
 36
1.0
 17
0.0
 27
0.0
 37
0.0
 40
341.0
 41
1.24
 42
50.0
 43
0.0
 44
0.0
 50
0.0
 51
0.0
 71
     0
 72
   100
 73
     1
 74
     3
 75
     0
 76
     0
 77
     0
 78
     0
  0
ENDTAB
  0
TABLE
  2
LTYPE
  5
5
330
0
100
AcDbSymbolTable
 70
     1
  0
LTYPE
  5
14
330
5
100
AcDbSymbolTableRecord
100
AcDbLinetypeTableRecord
  2
BYBLOCK
 70
     0
  3

 72
    65
 73
     0
 40
0.0
  0
LTYPE
  5
15
330
5
100
AcDbSymbolTableRecord
100
AcDbLinetypeTableRecord
  2
BYLAYER
 70
     0
  3

 72
    65
 73
     0
 40
0.0
  0
LTYPE
  5
16
330
5
100
AcDbSymbolTableRecord
100
AcDbLinetypeTableRecord
  2
CONTINUOUS
 70
     0
  3
Solid line
 72
    65
 73
     0
 40
0.0
  0
ENDTAB
  0
TABLE
  2
LAYER
  5
2
100
AcDbSymbolTable
 70
2
  0
LAYER
  5
50
100
AcDbSymbolTableRecord
100
AcDbLayerTableRecord
  2
0
 70
0
  6
CONTINUOUS
  0
LAYER
  5
51
100
AcDbSymbolTableRecord
100
AcDbLayerTableRecord
  2
Layer_1
 70
0
  6
CONTINUOUS
  0
ENDTAB
  0
TABLE
  2
STYLE
  5
3
330
0
100
AcDbSymbolTable
 70
     1
  0
STYLE
  5
11
330
3
100
AcDbSymbolTableRecord
100
AcDbTextStyleTableRecord
  2
STANDARD
 70
     0
 40
0.0
 41
1.0
 50
0.0
 71
     0
 42
2.5
  3
txt
  4

  0
ENDTAB
  0
TABLE
  2
VIEW
  5
6
330
0
100
AcDbSymbolTable
 70
     0
  0
ENDTAB
  0
TABLE
  2
UCS
  5
7
330
0
100
AcDbSymbolTable
 70
     0
  0
ENDTAB
  0
TABLE
  2
APPID
  5
9
330
0
100
AcDbSymbolTable
 70
     2
  0
APPID
  5
12
330
9
100
AcDbSymbolTableRecord
100
AcDbRegAppTableRecord
  2
ACAD
 70
     0
  0
ENDTAB
  0
TABLE
  2
DIMSTYLE
  5
A
330
0
100
AcDbSymbolTable
 70
     1
  0
DIMSTYLE
105
27
330
A
100
AcDbSymbolTableRecord
100
AcDbDimStyleTableRecord
  2
ISO-25
 70
     0
  3

  4

  5

  6

  7

 40
1.0
 41
2.5
 42
0.625
 43
3.75
 44
1.25
 45
0.0
 46
0.0
 47
0.0
 48
0.0
140
2.5
141
2.5
142
0.0
143
0.03937007874016
144
1.0
145
0.0
146
1.0
147
0.625
 71
     0
 72
     0
 73
     0
 74
     0
 75
     0
 76
     0
 77
     1
 78
     8
170
     0
171
     3
172
     1
173
     0
174
     0
175
     0
176
     0
177
     0
178
     0
270
     2
271
     2
272
     2
273
     2
274
     3
340
11
275
     0
280
     0
281
     0
282
     0
283
     0
284
     8
285
     0
286
     0
287
     3
288
     0
  0
ENDTAB
  0
TABLE
  2
BLOCK_RECORD
  5
1
330
0
100
AcDbSymbolTable
 70
     1
  0
BLOCK_RECORD
  5
1F
330
1
100
AcDbSymbolTableRecord
100
AcDbBlockTableRecord
  2
*MODEL_SPACE
  0
BLOCK_RECORD
  5
1B
330
1
100
AcDbSymbolTableRecord
100
AcDbBlockTableRecord
  2
*PAPER_SPACE
  0
ENDTAB
  0
ENDSEC
  0
SECTION
  2
BLOCKS
  0
BLOCK
  5
20
330
1F
100
AcDbEntity
  8
0
100
AcDbBlockBegin
  2
*MODEL_SPACE
 70
     0
 10
0.0
 20
0.0
 30
0.0
  3
*MODEL_SPACE
  1

  0
ENDBLK
  5
21
330
1F
100
AcDbEntity
  8
0
100
AcDbBlockEnd
  0
BLOCK
  5
1C
330
1B
100
AcDbEntity
 67
     1
  8
0
100
AcDbBlockBegin
  2
*PAPER_SPACE
  1

  0
ENDBLK
  5
1D
330
1B
100
AcDbEntity
 67
     1
  8
0
100
AcDbBlockEnd
  0
ENDSEC
  0
SECTION
  2
ENTITIES
  0
SPLINE
  5
100
100
AcDbEntity
  8
Layer_1
 62
7
100
AcDbSpline
 70
8
 71
3
 72
8
 73
4
 74
0
 40
0
 40
0
 40
0
 40
0
 40
1
 40
1
 40
1
 40
1
 10
5.100772
 20
9.823752
 30
0.0
 10
5.187986
 20
9.823752
 30
0.0
 10
5.271629
 20
9.789106
 30
0.0
 10
5.333299
 20
9.727436
 30
0.0
  0
SPLINE
  5
101
100
AcDbEntity
  8
Layer_1
 62
7
100
AcDbSpline
 70
8
 71
3
 72
8
 73
4
 74
0
 40
0
 40
0
 40
0
 40
0
 40
1
 40
1
 40
1
 40
1
 10
5.333299
 20
9.727436
 30
0.0
 10
5.394969
 20
9.665766
 30
0.0
 10
5.429615
 20
9.582124
 30
0.0
 10
5.429615
 20
9.494909
 30
0.0
  0
LWPOLYLINE
  5
102
100
AcDbEntity
  8
Layer_1
 62
7
100
AcDbPolyline
 90
2
 70
0
 10
1.258459
 20
9.823752
 30
0.0
 10
5.100772
 20
9.823752
 30
0.0
  0
SPLINE
  5
103
100
AcDbEntity
  8
Layer_1
 62
7
100
AcDbSpline
 70
8
 71
3
 72
8
 73
4
 74
0
 40
0
 40
0
 40
0
 40
0
 40
1
 40
1
 40
1
 40
1
 10
5.429615
 20
6.777596
 30
0.0
 10
5.429615
 20
6.690381
 30
0.0
 10
5.394969
 20
6.606739
 30
0.0
 10
5.333299
 20
6.545068
 30
0.0
  0
SPLINE
  5
104
100
AcDbEntity
  8
Layer_1
 62
7
100
AcDbSpline
 70
8
 71
3
 72
8
 73
4
 74
0
 40
0
 40
0
 40
0
 40
0
 40
1
 40
1
 40
1
 40
1
 10
5.333299
 20
6.545068
 30
0.0
 10
5.271629
 20
6.483398
 30
0.0
 10
5.187986
 20
6.448752
 30
0.0
 10
5.100772
 20
6.448752
 30
0.0
  0
LWPOLYLINE
  5
105
100
AcDbEntity
  8
Layer_1
 62
7
100
AcDbPolyline
 90
2
 70
0
 10
5.429615
 20
9.494909
 30
0.0
 10
5.429615
 20
6.777596
 30
0.0
  0
SPLINE
  5
106
100
AcDbEntity
  8
Layer_1
 62
7
100
AcDbSpline
 70
8
 71
3
 72
8
 73
4
 74
0
 40
0
 40
0
 40
0
 40
0
 40
1
 40
1
 40
1
 40
1
 10
1.258459
 20
6.448752
 30
0.0
 10
1.171244
 20
6.448752
 30
0.0
 10
1.087601
 20
6.483398
 30
0.0
 10
1.025931
 20
6.545068
 30
0.0
  0
SPLINE
  5
107
100
AcDbEntity
  8
Layer_1
 62
7
100
AcDbSpline
 70
8
 71
3
 72
8
 73
4
 74
0
 40
0
 40
0
 40
0
 40
0
 40
1
 40
1
 40
1
 40
1
 10
1.025931
 20
6.545068
 30
0.0
 10
0.964261
 20
6.606739
 30
0.0
 10
0.929615
 20
6.690381
 30
0.0
 10
0.929615
 20
6.777596
 30
0.0
  0
LWPOLYLINE
  5
108
100
AcDbEntity
  8
Layer_1
 62
7
100
AcDbPolyline
 90
2
 70
0
 10
5.100772
 20
6.448752
 30
0.0
 10
1.258459
 20
6.448752
 30
0.0
  0
SPLINE
  5
109
100
AcDbEntity
  8
Layer_1
 62
7
100
AcDbSpline
 70
8
 71
3
 72
8
 73
4
 74
0
 40
0
 40
0
 40
0
 40
0
 40
1
 40
1
 40
1
 40
1
 10
0.929615
 20
9.494909
 30
0.0
 10
0.929615
 20
9.582124
 30
0.0
 10
0.964261
 20
9.665766
 30
0.0
 10
1.025931
 20
9.727436
 30
0.0
  0
SPLINE
  5
10a
100
AcDbEntity
  8
Layer_1
 62
7
100
AcDbSpline
 70
8
 71
3
 72
8
 73
4
 74
0
 40
0
 40
0
 40
0
 40
0
 40
1
 40
1
 40
1
 40
1
 10
1.025931
 20
9.727436
 30
0.0
 10
1.087601
 20
9.789106
 30
0.0
 10
1.171244
 20
9.823752
 30
0.0
 10
1.258459
 20
9.823752
 30
0.0
  0
LWPOLYLINE
  5
10b
100
AcDbEntity
  8
Layer_1
 62
7
100
AcDbPolyline
 90
2
 70
0
 10
0.929615
 20
6.777596
 30
0.0
 10
0.929615
 20
9.494909
 30
0.0
  0
SPLINE
  5
10c
100
AcDbEntity
  8
Layer_1
 62
7
100
AcDbSpline
 70
8
 71
3
 72
8
 73
4
 74
0
 40
0
 40
0
 40
0
 40
0
 40
1
 40
1
 40
1
 40
1
 10
1.897931
 20
8.593252
 30
0.0
 10
1.879933
 20
8.593252
 30
0.0
 10
1.863706
 20
8.582410
 30
0.0
 10
1.856819
 20
8.565782
 30
0.0
  0
SPLINE
  5
10d
100
AcDbEntity
  8
Layer_1
 62
7
100
AcDbSpline
 70
8
 71
3
 72
8
 73
4
 74
0
 40
0
 40
0
 40
0
 40
0
 40
1
 40
1
 40
1
 40
1
 10
1.856819
 20
8.565782
 30
0.0
 10
1.849931
 20
8.549153
 30
0.0
 10
1.853738
 20
8.530013
 30
0.0
 10
1.866465
 20
8.517286
 30
0.0
  0
SPLINE
  5
10e
100
AcDbEntity
  8
Layer_1
 62
7
100
AcDbSpline
 70
8
 71
3
 72
8
 73
4
 74
0
 40
0
 40
0
 40
0
 40
0
 40
1
 40
1
 40
1
 40
1
 10
1.866465
 20
8.517286
 30
0.0
 10
1.879192
 20
8.504559
 30
0.0
 10
1.898332
 20
8.500752
 30
0.0
 10
1.914961
 20
8.507640
 30
0.0
  0
SPLINE
  5
10f
100
AcDbEntity
  8
Layer_1
 62
7
100
AcDbSpline
 70
8
 71
3
 72
8
 73
4
 74
0
 40
0
 40
0
 40
0
 40
0
 40
1
 40
1
 40
1
 40
1
 10
1.914961
 20
8.507640
 30
0.0
 10
1.931589
 20
8.514528
 30
0.0
 10
1.942431
 20
8.530754
 30
0.0
 10
1.942431
 20
8.548752
 30
0.0
  0
SPLINE
  5
110
100
AcDbEntity
  8
Layer_1
 62
7
100
AcDbSpline
 70
8
 71
3
 72
8
 73
4
 74
0
 40
0
 40
0
 40
0
 40
0
 40
1
 40
1
 40
1
 40
1
 10
1.942431
 20
8.548752
 30
0.0
 10
1.942431
 20
8.573329
 30
0.0
 10
1.922508
 20
8.593252
 30
0.0
 10
1.897931
 20
8.593252
 30
0.0
  0
LWPOLYLINE
  5
111
100
AcDbEntity
  8
Layer_1
 62
7
100
AcDbPolyline
 90
1
 70
1
 10
1.258459
 20
9.823752
 30
0.0
  0
SPLINE
  5
112
100
AcDbEntity
  8
Layer_1
 62
7
100
AcDbSpline
 70
8
 71
3
 72
8
 73
4
 74
0
 40
0
 40
0
 40
0
 40
0
 40
1
 40
1
 40
1
 40
1
 10
1.452931
 20
7.768252
 30
0.0
 10
1.434932
 20
7.768252
 30
0.0
 10
1.418706
 20
7.757410
 30
0.0
 10
1.411818
 20
7.740782
 30
0.0
  0
SPLINE
  5
113
100
AcDbEntity
  8
Layer_1
 62
7
100
AcDbSpline
 70
8
 71
3
 72
8
 73
4
 74
0
 40
0
 40
0
 40
0
 40
0
 40
1
 40
1
 40
1
 40
1
 10
1.411818
 20
7.740782
 30
0.0
 10
1.404931
 20
7.724153
 30
0.0
 10
1.408738
 20
7.705013
 30
0.0
 10
1.421465
 20
7.692286
 30
0.0
  0
SPLINE
  5
114
100
AcDbEntity
  8
Layer_1
 62
7
100
AcDbSpline
 70
8
 71
3
 72
8
 73
4
 74
0
 40
0
 40
0
 40
0
 40
0
 40
1
 40
1
 40
1
 40
1
 10
1.421465
 20
7.692286
 30
0.0
 10
1.434192
 20
7.679559
 30
0.0
 10
1.453332
 20
7.675752
 30
0.0
 10
1.469960
 20
7.682640
 30
0.0
  0
SPLINE
  5
115
100
AcDbEntity
  8
Layer_1
 62
7
100
AcDbSpline
 70
8
 71
3
 72
8
 73
4
 74
0
 40
0
 40
0
 40
0
 40
0
 40
1
 40
1
 40
1
 40
1
 10
1.469960
 20
7.682640
 30
0.0
 10
1.486589
 20
7.689527
 30
0.0
 10
1.497431
 20
7.705754
 30
0.0
 10
1.497431
 20
7.723752
 30
0.0
  0
SPLINE
  5
116
100
AcDbEntity
  8
Layer_1
 62
7
100
AcDbSpline
 70
8
 71
3
 72
8
 73
4
 74
0
 40
0
 40
0
 40
0
 40
0
 40
1
 40
1
 40
1
 40
1
 10
1.497431
 20
7.723752
 30
0.0
 10
1.497431
 20
7.735554
 30
0.0
 10
1.492743
 20
7.746873
 30
0.0
 10
1.484397
 20
7.755219
 30
0.0
  0
SPLINE
  5
117
100
AcDbEntity
  8
Layer_1
 62
7
100
AcDbSpline
 70
8
 71
3
 72
8
 73
4
 74
0
 40
0
 40
0
 40
0
 40
0
 40
1
 40
1
 40
1
 40
1
 10
1.484397
 20
7.755219
 30
0.0
 10
1.476052
 20
7.763564
 30
0.0
 10
1.464733
 20
7.768252
 30
0.0
 10
1.452931
 20
7.768252
 30
0.0
  0
LWPOLYLINE
  5
118
100
AcDbEntity
  8
Layer_1
 62
7
100
AcDbPolyline
 90
1
 70
1
 10
1.897931
 20
8.593252
 30
0.0
  0
LWPOLYLINE
  5
119
100
AcDbEntity
  8
Layer_1
 62
7
100
AcDbPolyline
 90
1
 70
1
 10
1.452931
 20
7.768252
 30
0.0
  0
LWPOLYLINE
  5
11a
100
AcDbEntity
  8
Layer_1
 62
7
100
AcDbPolyline
 90
4
 70
1
 10
1.452931
 20
7.723752
 30
0.0
 10
1.452931
 20
8.548752
 30
0.0
 10
1.897931
 20
8.548752
 30
0.0
 10
1.897931
 20
7.723752
 30
0.0
  0
LWPOLYLINE
  5
11b
100
AcDbEntity
  8
Layer_1
 62
7
100
AcDbPolyline
 90
4
 70
1
 10
3.554987
 20
9.286252
 30
0.0
 10
4.354987
 20
9.286252
 30
0.0
 10
4.354987
 20
6.986252
 30
0.0
 10
3.554987
 20
6.986252
 30
0.0
  0
SPLINE
  5
11c
100
AcDbEntity
  8
Layer_1
 62
7
100
AcDbSpline
 70
8
 71
3
 72
8
 73
4
 74
0
 40
0
 40
0
 40
0
 40
0
 40
1
 40
1
 40
1
 40
1
 10
3.554987
 20
9.344252
 30
0.0
 10
3.531528
 20
9.344252
 30
0.0
 10
3.510379
 20
9.330121
 30
0.0
 10
3.501402
 20
9.308448
 30
0.0
  0
SPLINE
  5
11d
100
AcDbEntity
  8
Layer_1
 62
7
100
AcDbSpline
 70
8
 71
3
 72
8
 73
4
 74
0
 40
0
 40
0
 40
0
 40
0
 40
1
 40
1
 40
1
 40
1
 10
3.501402
 20
9.308448
 30
0.0
 10
3.492424
 20
9.286775
 30
0.0
 10
3.497387
 20
9.261828
 30
0.0
 10
3.513974
 20
9.245240
 30
0.0
  0
SPLINE
  5
11e
100
AcDbEntity
  8
Layer_1
 62
7
100
AcDbSpline
 70
8
 71
3
 72
8
 73
4
 74
0
 40
0
 40
0
 40
0
 40
0
 40
1
 40
1
 40
1
 40
1
 10
3.513974
 20
9.245240
 30
0.0
 10
3.530562
 20
9.228652
 30
0.0
 10
3.555509
 20
9.223690
 30
0.0
 10
3.577182
 20
9.232667
 30
0.0
  0
SPLINE
  5
11f
100
AcDbEntity
  8
Layer_1
 62
7
100
AcDbSpline
 70
8
 71
3
 72
8
 73
4
 74
0
 40
0
 40
0
 40
0
 40
0
 40
1
 40
1
 40
1
 40
1
 10
3.577182
 20
9.232667
 30
0.0
 10
3.598855
 20
9.241645
 30
0.0
 10
3.612987
 20
9.262794
 30
0.0
 10
3.612987
 20
9.286252
 30
0.0
  0
SPLINE
  5
120
100
AcDbEntity
  8
Layer_1
 62
7
100
AcDbSpline
 70
8
 71
3
 72
8
 73
4
 74
0
 40
0
 40
0
 40
0
 40
0
 40
1
 40
1
 40
1
 40
1
 10
3.612987
 20
9.286252
 30
0.0
 10
3.612987
 20
9.301635
 30
0.0
 10
3.606876
 20
9.316387
 30
0.0
 10
3.595999
 20
9.327265
 30
0.0
  0
SPLINE
  5
121
100
AcDbEntity
  8
Layer_1
 62
7
100
AcDbSpline
 70
8
 71
3
 72
8
 73
4
 74
0
 40
0
 40
0
 40
0
 40
0
 40
1
 40
1
 40
1
 40
1
 10
3.595999
 20
9.327265
 30
0.0
 10
3.585122
 20
9.338142
 30
0.0
 10
3.570369
 20
9.344252
 30
0.0
 10
3.554987
 20
9.344252
 30
0.0
  0
LWPOLYLINE
  5
122
100
AcDbEntity
  8
Layer_1
 62
7
100
AcDbPolyline
 90
4
 70
1
 10
2.954987
 20
9.386252
 30
0.0
 10
4.954987
 20
9.386252
 30
0.0
 10
4.954987
 20
6.886252
 30
0.0
 10
2.954987
 20
6.886252
 30
0.0
  0
SPLINE
  5
123
100
AcDbEntity
  8
Layer_1
 62
7
100
AcDbSpline
 70
8
 71
3
 72
8
 73
4
 74
0
 40
0
 40
0
 40
0
 40
0
 40
1
 40
1
 40
1
 40
1
 10
4.353811
 20
9.344252
 30
0.0
 10
4.330352
 20
9.344252
 30
0.0
 10
4.309203
 20
9.330121
 30
0.0
 10
4.300226
 20
9.308448
 30
0.0
  0
SPLINE
  5
124
100
AcDbEntity
  8
Layer_1
 62
7
100
AcDbSpline
 70
8
 71
3
 72
8
 73
4
 74
0
 40
0
 40
0
 40
0
 40
0
 40
1
 40
1
 40
1
 40
1
 10
4.300226
 20
9.308448
 30
0.0
 10
4.291248
 20
9.286775
 30
0.0
 10
4.296211
 20
9.261828
 30
0.0
 10
4.312798
 20
9.245240
 30
0.0
  0
SPLINE
  5
125
100
AcDbEntity
  8
Layer_1
 62
7
100
AcDbSpline
 70
8
 71
3
 72
8
 73
4
 74
0
 40
0
 40
0
 40
0
 40
0
 40
1
 40
1
 40
1
 40
1
 10
4.312798
 20
9.245240
 30
0.0
 10
4.329386
 20
9.228652
 30
0.0
 10
4.354333
 20
9.223690
 30
0.0
 10
4.376006
 20
9.232667
 30
0.0
  0
SPLINE
  5
126
100
AcDbEntity
  8
Layer_1
 62
7
100
AcDbSpline
 70
8
 71
3
 72
8
 73
4
 74
0
 40
0
 40
0
 40
0
 40
0
 40
1
 40
1
 40
1
 40
1
 10
4.376006
 20
9.232667
 30
0.0
 10
4.397679
 20
9.241645
 30
0.0
 10
4.411811
 20
9.262794
 30
0.0
 10
4.411811
 20
9.286252
 30
0.0
  0
SPLINE
  5
127
100
AcDbEntity
  8
Layer_1
 62
7
100
AcDbSpline
 70
8
 71
3
 72
8
 73
4
 74
0
 40
0
 40
0
 40
0
 40
0
 40
1
 40
1
 40
1
 40
1
 10
4.411811
 20
9.286252
 30
0.0
 10
4.411811
 20
9.301635
 30
0.0
 10
4.405700
 20
9.316387
 30
0.0
 10
4.394823
 20
9.327265
 30
0.0
  0
SPLINE
  5
128
100
AcDbEntity
  8
Layer_1
 62
7
100
AcDbSpline
 70
8
 71
3
 72
8
 73
4
 74
0
 40
0
 40
0
 40
0
 40
0
 40
1
 40
1
 40
1
 40
1
 10
4.394823
 20
9.327265
 30
0.0
 10
4.383946
 20
9.338142
 30
0.0
 10
4.369193
 20
9.344252
 30
0.0
 10
4.353811
 20
9.344252
 30
0.0
  0
LWPOLYLINE
  5
129
100
AcDbEntity
  8
Layer_1
 62
7
100
AcDbPolyline
 90
1
 70
1
 10
3.554987
 20
9.344252
 30
0.0
  0
SPLINE
  5
12a
100
AcDbEntity
  8
Layer_1
 62
7
100
AcDbSpline
 70
8
 71
3
 72
8
 73
4
 74
0
 40
0
 40
0
 40
0
 40
0
 40
1
 40
1
 40
1
 40
1
 10
3.554987
 20
7.044252
 30
0.0
 10
3.531528
 20
7.044252
 30
0.0
 10
3.510379
 20
7.030121
 30
0.0
 10
3.501402
 20
7.008448
 30
0.0
  0
SPLINE
  5
12b
100
AcDbEntity
  8
Layer_1
 62
7
100
AcDbSpline
 70
8
 71
3
 72
8
 73
4
 74
0
 40
0
 40
0
 40
0
 40
0
 40
1
 40
1
 40
1
 40
1
 10
3.501402
 20
7.008448
 30
0.0
 10
3.492424
 20
6.986775
 30
0.0
 10
3.497387
 20
6.961828
 30
0.0
 10
3.513974
 20
6.945240
 30
0.0
  0
SPLINE
  5
12c
100
AcDbEntity
  8
Layer_1
 62
7
100
AcDbSpline
 70
8
 71
3
 72
8
 73
4
 74
0
 40
0
 40
0
 40
0
 40
0
 40
1
 40
1
 40
1
 40
1
 10
3.513974
 20
6.945240
 30
0.0
 10
3.530562
 20
6.928652
 30
0.0
 10
3.555509
 20
6.923690
 30
0.0
 10
3.577182
 20
6.932667
 30
0.0
  0
SPLINE
  5
12d
100
AcDbEntity
  8
Layer_1
 62
7
100
AcDbSpline
 70
8
 71
3
 72
8
 73
4
 74
0
 40
0
 40
0
 40
0
 40
0
 40
1
 40
1
 40
1
 40
1
 10
3.577182
 20
6.932667
 30
0.0
 10
3.598855
 20
6.941645
 30
0.0
 10
3.612987
 20
6.962794
 30
0.0
 10
3.612987
 20
6.986252
 30
0.0
  0
SPLINE
  5
12e
100
AcDbEntity
  8
Layer_1
 62
7
100
AcDbSpline
 70
8
 71
3
 72
8
 73
4
 74
0
 40
0
 40
0
 40
0
 40
0
 40
1
 40
1
 40
1
 40
1
 10
3.612987
 20
6.986252
 30
0.0
 10
3.612987
 20
7.001635
 30
0.0
 10
3.606876
 20
7.016387
 30
0.0
 10
3.595999
 20
7.027265
 30
0.0
  0
SPLINE
  5
12f
100
AcDbEntity
  8
Layer_1
 62
7
100
AcDbSpline
 70
8
 71
3
 72
8
 73
4
 74
0
 40
0
 40
0
 40
0
 40
0
 40
1
 40
1
 40
1
 40
1
 10
3.595999
 20
7.027265
 30
0.0
 10
3.585122
 20
7.038142
 30
0.0
 10
3.570369
 20
7.044252
 30
0.0
 10
3.554987
 20
7.044252
 30
0.0
  0
LWPOLYLINE
  5
130
100
AcDbEntity
  8
Layer_1
 62
7
100
AcDbPolyline
 90
1
 70
1
 10
4.353811
 20
9.344252
 30
0.0
  0
SPLINE
  5
131
100
AcDbEntity
  8
Layer_1
 62
7
100
AcDbSpline
 70
8
 71
3
 72
8
 73
4
 74
0
 40
0
 40
0
 40
0
 40
0
 40
1
 40
1
 40
1
 40
1
 10
4.354987
 20
7.044252
 30
0.0
 10
4.322954
 20
7.044252
 30
0.0
 10
4.296987
 20
7.018285
 30
0.0
 10
4.296987
 20
6.986252
 30
0.0
  0
SPLINE
  5
132
100
AcDbEntity
  8
Layer_1
 62
7
100
AcDbSpline
 70
8
 71
3
 72
8
 73
4
 74
0
 40
0
 40
0
 40
0
 40
0
 40
1
 40
1
 40
1
 40
1
 10
4.296987
 20
6.986252
 30
0.0
 10
4.296987
 20
6.954220
 30
0.0
 10
4.322954
 20
6.928252
 30
0.0
 10
4.354987
 20
6.928252
 30
0.0
  0
SPLINE
  5
133
100
AcDbEntity
  8
Layer_1
 62
7
100
AcDbSpline
 70
8
 71
3
 72
8
 73
4
 74
0
 40
0
 40
0
 40
0
 40
0
 40
1
 40
1
 40
1
 40
1
 10
4.354987
 20
6.928252
 30
0.0
 10
4.387019
 20
6.928252
 30
0.0
 10
4.412987
 20
6.954220
 30
0.0
 10
4.412987
 20
6.986252
 30
0.0
  0
SPLINE
  5
134
100
AcDbEntity
  8
Layer_1
 62
7
100
AcDbSpline
 70
8
 71
3
 72
8
 73
4
 74
0
 40
0
 40
0
 40
0
 40
0
 40
1
 40
1
 40
1
 40
1
 10
4.412987
 20
6.986252
 30
0.0
 10
4.412987
 20
7.001635
 30
0.0
 10
4.406876
 20
7.016387
 30
0.0
 10
4.395999
 20
7.027265
 30
0.0
  0
SPLINE
  5
135
100
AcDbEntity
  8
Layer_1
 62
7
100
AcDbSpline
 70
8
 71
3
 72
8
 73
4
 74
0
 40
0
 40
0
 40
0
 40
0
 40
1
 40
1
 40
1
 40
1
 10
4.395999
 20
7.027265
 30
0.0
 10
4.385122
 20
7.038142
 30
0.0
 10
4.370369
 20
7.044252
 30
0.0
 10
4.354987
 20
7.044252
 30
0.0
  0
LWPOLYLINE
  5
136
100
AcDbEntity
  8
Layer_1
 62
7
100
AcDbPolyline
 90
1
 70
1
 10
3.554987
 20
7.044252
 30
0.0
  0
LWPOLYLINE
  5
137
100
AcDbEntity
  8
Layer_1
 62
7
100
AcDbPolyline
 90
1
 70
1
 10
4.354987
 20
7.044252
 30
0.0
  0
LWPOLYLINE
  5
138
100
AcDbEntity
  8
Layer_1
 62
7
100
AcDbPolyline
 90
4
 70
1
 10
1.390431
 20
6.897781
 30
0.0
 10
1.515431
 20
6.897781
 30
0.0
 10
1.515431
 20
6.647781
 30
0.0
 10
1.390431
 20
6.647781
 30
0.0
  0
SPLINE
  5
139
100
AcDbEntity
  8
Layer_1
 62
7
100
AcDbSpline
 70
8
 71
3
 72
8
 73
4
 74
0
 40
0
 40
0
 40
0
 40
0
 40
1
 40
1
 40
1
 40
1
 10
3.992487
 20
6.843252
 30
0.0
 10
3.974488
 20
6.843252
 30
0.0
 10
3.958262
 20
6.832410
 30
0.0
 10
3.951374
 20
6.815782
 30
0.0
  0
SPLINE
  5
13a
100
AcDbEntity
  8
Layer_1
 62
7
100
AcDbSpline
 70
8
 71
3
 72
8
 73
4
 74
0
 40
0
 40
0
 40
0
 40
0
 40
1
 40
1
 40
1
 40
1
 10
3.951374
 20
6.815782
 30
0.0
 10
3.944486
 20
6.799153
 30
0.0
 10
3.948293
 20
6.780013
 30
0.0
 10
3.961020
 20
6.767286
 30
0.0
  0
SPLINE
  5
13b
100
AcDbEntity
  8
Layer_1
 62
7
100
AcDbSpline
 70
8
 71
3
 72
8
 73
4
 74
0
 40
0
 40
0
 40
0
 40
0
 40
1
 40
1
 40
1
 40
1
 10
3.961020
 20
6.767286
 30
0.0
 10
3.973747
 20
6.754559
 30
0.0
 10
3.992888
 20
6.750752
 30
0.0
 10
4.009516
 20
6.757640
 30
0.0
  0
SPLINE
  5
13c
100
AcDbEntity
  8
Layer_1
 62
7
100
AcDbSpline
 70
8
 71
3
 72
8
 73
4
 74
0
 40
0
 40
0
 40
0
 40
0
 40
1
 40
1
 40
1
 40
1
 10
4.009516
 20
6.757640
 30
0.0
 10
4.026145
 20
6.764527
 30
0.0
 10
4.036987
 20
6.780754
 30
0.0
 10
4.036987
 20
6.798752
 30
0.0
  0
SPLINE
  5
13d
100
AcDbEntity
  8
Layer_1
 62
7
100
AcDbSpline
 70
8
 71
3
 72
8
 73
4
 74
0
 40
0
 40
0
 40
0
 40
0
 40
1
 40
1
 40
1
 40
1
 10
4.036987
 20
6.798752
 30
0.0
 10
4.036987
 20
6.823329
 30
0.0
 10
4.017063
 20
6.843252
 30
0.0
 10
3.992487
 20
6.843252
 30
0.0
  0
LWPOLYLINE
  5
13e
100
AcDbEntity
  8
Layer_1
 62
7
100
AcDbPolyline
 90
4
 70
1
 10
1.835431
 20
6.897781
 30
0.0
 10
1.960431
 20
6.897781
 30
0.0
 10
1.960431
 20
6.647781
 30
0.0
 10
1.835431
 20
6.647781
 30
0.0
  0
LWPOLYLINE
  5
13f
100
AcDbEntity
  8
Layer_1
 62
7
100
AcDbPolyline
 90
1
 70
1
 10
3.992487
 20
6.843252
 30
0.0
  0
LWPOLYLINE
  5
140
100
AcDbEntity
  8
Layer_1
 62
7
100
AcDbPolyline
 90
4
 70
1
 10
3.554987
 20
6.986252
 30
0.0
 10
3.992487
 20
6.986252
 30
0.0
 10
3.992487
 20
6.798752
 30
0.0
 10
3.554987
 20
6.798752
 30
0.0
  0
SPLINE
  5
141
100
AcDbEntity
  8
Layer_1
 62
7
100
AcDbSpline
 70
8
 71
3
 72
8
 73
4
 74
0
 40
0
 40
0
 40
0
 40
0
 40
1
 40
1
 40
1
 40
1
 10
3.017816
 20
6.640357
 30
0.0
 10
2.995192
 20
6.650529
 30
0.0
 10
2.977166
 20
6.655615
 30
0.0
 10
2.963739
 20
6.655615
 30
0.0
  0
SPLINE
  5
142
100
AcDbEntity
  8
Layer_1
 62
7
100
AcDbSpline
 70
8
 71
3
 72
8
 73
4
 74
0
 40
0
 40
0
 40
0
 40
0
 40
1
 40
1
 40
1
 40
1
 10
2.963739
 20
6.655615
 30
0.0
 10
2.956089
 20
6.655615
 30
0.0
 10
2.949985
 20
6.654314
 30
0.0
 10
2.945428
 20
6.651710
 30
0.0
  0
SPLINE
  5
143
100
AcDbEntity
  8
Layer_1
 62
7
100
AcDbSpline
 70
8
 71
3
 72
8
 73
4
 74
0
 40
0
 40
0
 40
0
 40
0
 40
1
 40
1
 40
1
 40
1
 10
2.945428
 20
6.651710
 30
0.0
 10
2.940952
 20
6.649188
 30
0.0
 10
2.938714
 20
6.645810
 30
0.0
 10
2.938714
 20
6.641578
 30
0.0
  0
SPLINE
  5
144
100
AcDbEntity
  8
Layer_1
 62
7
100
AcDbSpline
 70
8
 71
3
 72
8
 73
4
 74
0
 40
0
 40
0
 40
0
 40
0
 40
1
 40
1
 40
1
 40
1
 10
2.938714
 20
6.641578
 30
0.0
 10
2.938714
 20
6.638323
 30
0.0
 10
2.940342
 20
6.635230
 30
0.0
 10
2.943597
 20
6.632301
 30
0.0
  0
SPLINE
  5
145
100
AcDbEntity
  8
Layer_1
 62
7
100
AcDbSpline
 70
8
 71
3
 72
8
 73
4
 74
0
 40
0
 40
0
 40
0
 40
0
 40
1
 40
1
 40
1
 40
1
 10
2.943597
 20
6.632301
 30
0.0
 10
2.946852
 20
6.629371
 30
0.0
 10
2.954787
 20
6.625587
 30
0.0
 10
2.967401
 20
6.620948
 30
0.0
  0
SPLINE
  5
146
100
AcDbEntity
  8
Layer_1
 62
7
100
AcDbSpline
 70
8
 71
3
 72
8
 73
4
 74
0
 40
0
 40
0
 40
0
 40
0
 40
1
 40
1
 40
1
 40
1
 10
2.967401
 20
6.620948
 30
0.0
 10
2.980015
 20
6.616309
 30
0.0
 10
2.990106
 20
6.611996
 30
0.0
 10
2.997674
 20
6.608009
 30
0.0
  0
SPLINE
  5
147
100
AcDbEntity
  8
Layer_1
 62
7
100
AcDbSpline
 70
8
 71
3
 72
8
 73
4
 74
0
 40
0
 40
0
 40
0
 40
0
 40
1
 40
1
 40
1
 40
1
 10
2.997674
 20
6.608009
 30
0.0
 10
3.005242
 20
6.604021
 30
0.0
 10
3.011753
 20
6.598406
 30
0.0
 10
3.017205
 20
6.591163
 30
0.0
  0
SPLINE
  5
148
100
AcDbEntity
  8
Layer_1
 62
7
100
AcDbSpline
 70
8
 71
3
 72
8
 73
4
 74
0
 40
0
 40
0
 40
0
 40
0
 40
1
 40
1
 40
1
 40
1
 10
3.017205
 20
6.591163
 30
0.0
 10
3.022739
 20
6.583920
 30
0.0
 10
3.025506
 20
6.574765
 30
0.0
 10
3.025506
 20
6.563697
 30
0.0
  0
SPLINE
  5
149
100
AcDbEntity
  8
Layer_1
 62
7
100
AcDbSpline
 70
8
 71
3
 72
8
 73
4
 74
0
 40
0
 40
0
 40
0
 40
0
 40
1
 40
1
 40
1
 40
1
 10
3.025506
 20
6.563697
 30
0.0
 10
3.025506
 20
6.547910
 30
0.0
 10
3.019484
 20
6.535336
 30
0.0
 10
3.007440
 20
6.525978
 30
0.0
  0
SPLINE
  5
14a
100
AcDbEntity
  8
Layer_1
 62
7
100
AcDbSpline
 70
8
 71
3
 72
8
 73
4
 74
0
 40
0
 40
0
 40
0
 40
0
 40
1
 40
1
 40
1
 40
1
 10
3.007440
 20
6.525978
 30
0.0
 10
2.995477
 20
6.516619
 30
0.0
 10
2.979689
 20
6.511939
 30
0.0
 10
2.960076
 20
6.511939
 30
0.0
  0
SPLINE
  5
14b
100
AcDbEntity
  8
Layer_1
 62
7
100
AcDbSpline
 70
8
 71
3
 72
8
 73
4
 74
0
 40
0
 40
0
 40
0
 40
0
 40
1
 40
1
 40
1
 40
1
 10
2.960076
 20
6.511939
 30
0.0
 10
2.938918
 20
6.511939
 30
0.0
 10
2.918410
 20
6.517433
 30
0.0
 10
2.898553
 20
6.528419
 30
0.0
  0
LWPOLYLINE
  5
14c
100
AcDbEntity
  8
Layer_1
 62
7
100
AcDbPolyline
 90
2
 70
0
 10
3.017816
 20
6.673682
 30
0.0
 10
3.017816
 20
6.640357
 30
0.0
  0
SPLINE
  5
14d
100
AcDbEntity
  8
Layer_1
 62
7
100
AcDbSpline
 70
8
 71
3
 72
8
 73
4
 74
0
 40
0
 40
0
 40
0
 40
0
 40
1
 40
1
 40
1
 40
1
 10
2.898553
 20
6.565162
 30
0.0
 10
2.909946
 20
6.557512
 30
0.0
 10
2.920037
 20
6.551938
 30
0.0
 10
2.928826
 20
6.548439
 30
0.0
  0
SPLINE
  5
14e
100
AcDbEntity
  8
Layer_1
 62
7
100
AcDbSpline
 70
8
 71
3
 72
8
 73
4
 74
0
 40
0
 40
0
 40
0
 40
0
 40
1
 40
1
 40
1
 40
1
 10
2.928826
 20
6.548439
 30
0.0
 10
2.937615
 20
6.544939
 30
0.0
 10
2.946934
 20
6.543189
 30
0.0
 10
2.956781
 20
6.543189
 30
0.0
  0
SPLINE
  5
14f
100
AcDbEntity
  8
Layer_1
 62
7
100
AcDbSpline
 70
8
 71
3
 72
8
 73
4
 74
0
 40
0
 40
0
 40
0
 40
0
 40
1
 40
1
 40
1
 40
1
 10
2.956781
 20
6.543189
 30
0.0
 10
2.973463
 20
6.543189
 30
0.0
 10
2.981805
 20
6.548438
 30
0.0
 10
2.981805
 20
6.558937
 30
0.0
  0
SPLINE
  5
150
100
AcDbEntity
  8
Layer_1
 62
7
100
AcDbSpline
 70
8
 71
3
 72
8
 73
4
 74
0
 40
0
 40
0
 40
0
 40
0
 40
1
 40
1
 40
1
 40
1
 10
2.981805
 20
6.558937
 30
0.0
 10
2.981805
 20
6.562517
 30
0.0
 10
2.980137
 20
6.565894
 30
0.0
 10
2.976800
 20
6.569069
 30
0.0
  0
SPLINE
  5
151
100
AcDbEntity
  8
Layer_1
 62
7
100
AcDbSpline
 70
8
 71
3
 72
8
 73
4
 74
0
 40
0
 40
0
 40
0
 40
0
 40
1
 40
1
 40
1
 40
1
 10
2.976800
 20
6.569069
 30
0.0
 10
2.973463
 20
6.572242
 30
0.0
 10
2.965407
 20
6.576108
 30
0.0
 10
2.952630
 20
6.580665
 30
0.0
  0
SPLINE
  5
152
100
AcDbEntity
  8
Layer_1
 62
7
100
AcDbSpline
 70
8
 71
3
 72
8
 73
4
 74
0
 40
0
 40
0
 40
0
 40
0
 40
1
 40
1
 40
1
 40
1
 10
2.952630
 20
6.580665
 30
0.0
 10
2.939935
 20
6.585222
 30
0.0
 10
2.929844
 20
6.589454
 30
0.0
 10
2.922357
 20
6.593360
 30
0.0
  0
SPLINE
  5
153
100
AcDbEntity
  8
Layer_1
 62
7
100
AcDbSpline
 70
8
 71
3
 72
8
 73
4
 74
0
 40
0
 40
0
 40
0
 40
0
 40
1
 40
1
 40
1
 40
1
 10
2.922357
 20
6.593360
 30
0.0
 10
2.914951
 20
6.597267
 30
0.0
 10
2.908522
 20
6.602841
 30
0.0
 10
2.903070
 20
6.610084
 30
0.0
  0
SPLINE
  5
154
100
AcDbEntity
  8
Layer_1
 62
7
100
AcDbSpline
 70
8
 71
3
 72
8
 73
4
 74
0
 40
0
 40
0
 40
0
 40
0
 40
1
 40
1
 40
1
 40
1
 10
2.903070
 20
6.610084
 30
0.0
 10
2.897698
 20
6.617327
 30
0.0
 10
2.895013
 20
6.626604
 30
0.0
 10
2.895013
 20
6.637916
 30
0.0
  0
SPLINE
  5
155
100
AcDbEntity
  8
Layer_1
 62
7
100
AcDbSpline
 70
8
 71
3
 72
8
 73
4
 74
0
 40
0
 40
0
 40
0
 40
0
 40
1
 40
1
 40
1
 40
1
 10
2.895013
 20
6.637916
 30
0.0
 10
2.895013
 20
6.652564
 30
0.0
 10
2.900913
 20
6.664365
 30
0.0
 10
2.912713
 20
6.673317
 30
0.0
  0
SPLINE
  5
156
100
AcDbEntity
  8
Layer_1
 62
7
100
AcDbSpline
 70
8
 71
3
 72
8
 73
4
 74
0
 40
0
 40
0
 40
0
 40
0
 40
1
 40
1
 40
1
 40
1
 10
2.912713
 20
6.673317
 30
0.0
 10
2.924513
 20
6.682350
 30
0.0
 10
2.940301
 20
6.686866
 30
0.0
 10
2.960076
 20
6.686866
 30
0.0
  0
SPLINE
  5
157
100
AcDbEntity
  8
Layer_1
 62
7
100
AcDbSpline
 70
8
 71
3
 72
8
 73
4
 74
0
 40
0
 40
0
 40
0
 40
0
 40
1
 40
1
 40
1
 40
1
 10
2.960076
 20
6.686866
 30
0.0
 10
2.978306
 20
6.686866
 30
0.0
 10
2.997552
 20
6.682472
 30
0.0
 10
3.017816
 20
6.673683
 30
0.0
  0
LWPOLYLINE
  5
158
100
AcDbEntity
  8
Layer_1
 62
7
100
AcDbPolyline
 90
2
 70
0
 10
2.898553
 20
6.528419
 30
0.0
 10
2.898553
 20
6.565162
 30
0.0
  0
LWPOLYLINE
  5
159
100
AcDbEntity
  8
Layer_1
 62
7
100
AcDbPolyline
 90
1
 70
1
 10
3.017816
 20
6.673683
 30
0.0
  0
SPLINE
  5
15a
100
AcDbEntity
  8
Layer_1
 62
7
100
AcDbSpline
 70
8
 71
3
 72
8
 73
4
 74
0
 40
0
 40
0
 40
0
 40
0
 40
1
 40
1
 40
1
 40
1
 10
3.128045
 20
6.684668
 30
0.0
 10
3.157098
 20
6.684668
 30
0.0
 10
3.180047
 20
6.676693
 30
0.0
 10
3.196893
 20
6.660743
 30
0.0
  0
SPLINE
  5
15b
100
AcDbEntity
  8
Layer_1
 62
7
100
AcDbSpline
 70
8
 71
3
 72
8
 73
4
 74
0
 40
0
 40
0
 40
0
 40
0
 40
1
 40
1
 40
1
 40
1
 10
3.196893
 20
6.660743
 30
0.0
 10
3.213820
 20
6.644873
 30
0.0
 10
3.222283
 20
6.624325
 30
0.0
 10
3.222283
 20
6.599097
 30
0.0
  0
SPLINE
  5
15c
100
AcDbEntity
  8
Layer_1
 62
7
100
AcDbSpline
 70
8
 71
3
 72
8
 73
4
 74
0
 40
0
 40
0
 40
0
 40
0
 40
1
 40
1
 40
1
 40
1
 10
3.222283
 20
6.599097
 30
0.0
 10
3.222283
 20
6.572648
 30
0.0
 10
3.213698
 20
6.551856
 30
0.0
 10
3.196527
 20
6.536719
 30
0.0
  0
SPLINE
  5
15d
100
AcDbEntity
  8
Layer_1
 62
7
100
AcDbSpline
 70
8
 71
3
 72
8
 73
4
 74
0
 40
0
 40
0
 40
0
 40
0
 40
1
 40
1
 40
1
 40
1
 10
3.196527
 20
6.536719
 30
0.0
 10
3.179437
 20
6.521664
 30
0.0
 10
3.155023
 20
6.514136
 30
0.0
 10
3.123284
 20
6.514136
 30
0.0
  0
LWPOLYLINE
  5
15e
100
AcDbEntity
  8
Layer_1
 62
7
100
AcDbPolyline
 90
2
 70
0
 10
3.052850
 20
6.684668
 30
0.0
 10
3.128045
 20
6.684668
 30
0.0
  0
LWPOLYLINE
  5
15f
100
AcDbEntity
  8
Layer_1
 62
7
100
AcDbPolyline
 90
3
 70
0
 10
3.123284
 20
6.514136
 30
0.0
 10
3.052850
 20
6.514136
 30
0.0
 10
3.052850
 20
6.684668
 30
0.0
  0
SPLINE
  5
160
100
AcDbEntity
  8
Layer_1
 62
7
100
AcDbSpline
 70
8
 71
3
 72
8
 73
4
 74
0
 40
0
 40
0
 40
0
 40
0
 40
1
 40
1
 40
1
 40
1
 10
3.123040
 20
6.545386
 30
0.0
 10
3.141025
 20
6.545386
 30
0.0
 10
3.154779
 20
6.550309
 30
0.0
 10
3.164300
 20
6.560156
 30
0.0
  0
SPLINE
  5
161
100
AcDbEntity
  8
Layer_1
 62
7
100
AcDbSpline
 70
8
 71
3
 72
8
 73
4
 74
0
 40
0
 40
0
 40
0
 40
0
 40
1
 40
1
 40
1
 40
1
 10
3.164300
 20
6.560156
 30
0.0
 10
3.173822
 20
6.570085
 30
0.0
 10
3.178582
 20
6.583146
 30
0.0
 10
3.178582
 20
6.599341
 30
0.0
  0
SPLINE
  5
162
100
AcDbEntity
  8
Layer_1
 62
7
100
AcDbSpline
 70
8
 71
3
 72
8
 73
4
 74
0
 40
0
 40
0
 40
0
 40
0
 40
1
 40
1
 40
1
 40
1
 10
3.178582
 20
6.599341
 30
0.0
 10
3.178582
 20
6.616105
 30
0.0
 10
3.173740
 20
6.629289
 30
0.0
 10
3.164056
 20
6.638892
 30
0.0
  0
SPLINE
  5
163
100
AcDbEntity
  8
Layer_1
 62
7
100
AcDbSpline
 70
8
 71
3
 72
8
 73
4
 74
0
 40
0
 40
0
 40
0
 40
0
 40
1
 40
1
 40
1
 40
1
 10
3.164056
 20
6.638892
 30
0.0
 10
3.154453
 20
6.648576
 30
0.0
 10
3.140618
 20
6.653418
 30
0.0
 10
3.122552
 20
6.653418
 30
0.0
  0
LWPOLYLINE
  5
164
100
AcDbEntity
  8
Layer_1
 62
7
100
AcDbPolyline
 90
3
 70
0
 10
3.095330
 20
6.653418
 30
0.0
 10
3.095330
 20
6.545386
 30
0.0
 10
3.123040
 20
6.545386
 30
0.0
  0
LWPOLYLINE
  5
165
100
AcDbEntity
  8
Layer_1
 62
7
100
AcDbPolyline
 90
2
 70
0
 10
3.122552
 20
6.653418
 30
0.0
 10
3.095330
 20
6.653418
 30
0.0
  0
LWPOLYLINE
  5
166
100
AcDbEntity
  8
Layer_1
 62
7
100
AcDbPolyline
 90
4
 70
1
 10
3.297479
 20
6.684668
 30
0.0
 10
3.297479
 20
6.514136
 30
0.0
 10
3.254998
 20
6.514136
 30
0.0
 10
3.254998
 20
6.684668
 30
0.0
  0
LWPOLYLINE
  5
167
100
AcDbEntity
  8
Layer_1
 62
7
100
AcDbPolyline
 90
4
 70
1
 10
3.391961
 20
6.588599
 30
0.0
 10
3.391961
 20
6.555396
 30
0.0
 10
3.326776
 20
6.555396
 30
0.0
 10
3.326776
 20
6.588599
 30
0.0
  0
LWPOLYLINE
  5
168
100
AcDbEntity
  8
Layer_1
 62
7
100
AcDbPolyline
 90
4
 70
1
 10
3.488275
 20
6.684668
 30
0.0
 10
3.488275
 20
6.514136
 30
0.0
 10
3.450555
 20
6.514136
 30
0.0
 10
3.450555
 20
6.684668
 30
0.0
  0
SPLINE
  5
169
100
AcDbEntity
  8
Layer_1
 62
7
100
AcDbSpline
 70
8
 71
3
 72
8
 73
4
 74
0
 40
0
 40
0
 40
0
 40
0
 40
1
 40
1
 40
1
 40
1
 10
3.552484
 20
6.518896
 30
0.0
 10
3.562819
 20
6.531511
 30
0.0
 10
3.574619
 20
6.547461
 30
0.0
 10
3.587884
 20
6.566748
 30
0.0
  0
SPLINE
  5
16a
100
AcDbEntity
  8
Layer_1
 62
7
100
AcDbSpline
 70
8
 71
3
 72
8
 73
4
 74
0
 40
0
 40
0
 40
0
 40
0
 40
1
 40
1
 40
1
 40
1
 10
3.587884
 20
6.566748
 30
0.0
 10
3.601230
 20
6.586117
 30
0.0
 10
3.609653
 20
6.599870
 30
0.0
 10
3.613153
 20
6.608008
 30
0.0
  0
SPLINE
  5
16b
100
AcDbEntity
  8
Layer_1
 62
7
100
AcDbSpline
 70
8
 71
3
 72
8
 73
4
 74
0
 40
0
 40
0
 40
0
 40
0
 40
1
 40
1
 40
1
 40
1
 10
3.613153
 20
6.608008
 30
0.0
 10
3.616652
 20
6.616146
 30
0.0
 10
3.618402
 20
6.624040
 30
0.0
 10
3.618402
 20
6.631690
 30
0.0
  0
SPLINE
  5
16c
100
AcDbEntity
  8
Layer_1
 62
7
100
AcDbSpline
 70
8
 71
3
 72
8
 73
4
 74
0
 40
0
 40
0
 40
0
 40
0
 40
1
 40
1
 40
1
 40
1
 10
3.618402
 20
6.631690
 30
0.0
 10
3.618402
 20
6.638363
 30
0.0
 10
3.616164
 20
6.644100
 30
0.0
 10
3.611688
 20
6.648902
 30
0.0
  0
SPLINE
  5
16d
100
AcDbEntity
  8
Layer_1
 62
7
100
AcDbSpline
 70
8
 71
3
 72
8
 73
4
 74
0
 40
0
 40
0
 40
0
 40
0
 40
1
 40
1
 40
1
 40
1
 10
3.611688
 20
6.648902
 30
0.0
 10
3.607293
 20
6.653703
 30
0.0
 10
3.601963
 20
6.656104
 30
0.0
 10
3.595697
 20
6.656104
 30
0.0
  0
SPLINE
  5
16e
100
AcDbEntity
  8
Layer_1
 62
7
100
AcDbSpline
 70
8
 71
3
 72
8
 73
4
 74
0
 40
0
 40
0
 40
0
 40
0
 40
1
 40
1
 40
1
 40
1
 10
3.595697
 20
6.656104
 30
0.0
 10
3.583245
 20
6.656104
 30
0.0
 10
3.569574
 20
6.649023
 30
0.0
 10
3.554681
 20
6.634863
 30
0.0
  0
LWPOLYLINE
  5
16f
100
AcDbEntity
  8
Layer_1
 62
7
100
AcDbPolyline
 90
4
 70
0
 10
3.665155
 20
6.548926
 30
0.0
 10
3.665155
 20
6.514136
 30
0.0
 10
3.552484
 20
6.514136
 30
0.0
 10
3.552484
 20
6.518896
 30
0.0
  0
SPLINE
  5
170
100
AcDbEntity
  8
Layer_1
 62
7
100
AcDbSpline
 70
8
 71
3
 72
8
 73
4
 74
0
 40
0
 40
0
 40
0
 40
0
 40
1
 40
1
 40
1
 40
1
 10
3.554681
 20
6.670630
 30
0.0
 10
3.571364
 20
6.681454
 30
0.0
 10
3.587274
 20
6.686865
 30
0.0
 10
3.602410
 20
6.686865
 30
0.0
  0
SPLINE
  5
171
100
AcDbEntity
  8
Layer_1
 62
7
100
AcDbSpline
 70
8
 71
3
 72
8
 73
4
 74
0
 40
0
 40
0
 40
0
 40
0
 40
1
 40
1
 40
1
 40
1
 10
3.602410
 20
6.686865
 30
0.0
 10
3.619175
 20
6.686865
 30
0.0
 10
3.632358
 20
6.682552
 30
0.0
 10
3.641961
 20
6.673926
 30
0.0
  0
SPLINE
  5
172
100
AcDbEntity
  8
Layer_1
 62
7
100
AcDbSpline
 70
8
 71
3
 72
8
 73
4
 74
0
 40
0
 40
0
 40
0
 40
0
 40
1
 40
1
 40
1
 40
1
 10
3.641961
 20
6.673926
 30
0.0
 10
3.651645
 20
6.665300
 30
0.0
 10
3.656488
 20
6.653459
 30
0.0
 10
3.656488
 20
6.638404
 30
0.0
  0
SPLINE
  5
173
100
AcDbEntity
  8
Layer_1
 62
7
100
AcDbSpline
 70
8
 71
3
 72
8
 73
4
 74
0
 40
0
 40
0
 40
0
 40
0
 40
1
 40
1
 40
1
 40
1
 10
3.656488
 20
6.638404
 30
0.0
 10
3.656488
 20
6.617814
 30
0.0
 10
3.641066
 20
6.587988
 30
0.0
 10
3.610223
 20
6.548926
 30
0.0
  0
LWPOLYLINE
  5
174
100
AcDbEntity
  8
Layer_1
 62
7
100
AcDbPolyline
 90
2
 70
0
 10
3.554681
 20
6.634863
 30
0.0
 10
3.554681
 20
6.670630
 30
0.0
  0
LWPOLYLINE
  5
175
100
AcDbEntity
  8
Layer_1
 62
7
100
AcDbPolyline
 90
2
 70
0
 10
3.610223
 20
6.548926
 30
0.0
 10
3.665155
 20
6.548926
 30
0.0
  0
SPLINE
  5
176
100
AcDbEntity
  8
Layer_1
 62
7
100
AcDbSpline
 70
8
 71
3
 72
8
 73
4
 74
0
 40
0
 40
0
 40
0
 40
0
 40
1
 40
1
 40
1
 40
1
 10
3.924310
 20
6.528906
 30
0.0
 10
3.902988
 20
6.517594
 30
0.0
 10
3.880649
 20
6.511939
 30
0.0
 10
3.857293
 20
6.511939
 30
0.0
  0
SPLINE
  5
177
100
AcDbEntity
  8
Layer_1
 62
7
100
AcDbSpline
 70
8
 71
3
 72
8
 73
4
 74
0
 40
0
 40
0
 40
0
 40
0
 40
1
 40
1
 40
1
 40
1
 10
3.857293
 20
6.511939
 30
0.0
 10
3.827020
 20
6.511939
 30
0.0
 10
3.802891
 20
6.520280
 30
0.0
 10
3.784906
 20
6.536963
 30
0.0
  0
SPLINE
  5
178
100
AcDbEntity
  8
Layer_1
 62
7
100
AcDbSpline
 70
8
 71
3
 72
8
 73
4
 74
0
 40
0
 40
0
 40
0
 40
0
 40
1
 40
1
 40
1
 40
1
 10
3.784906
 20
6.536963
 30
0.0
 10
3.767002
 20
6.553727
 30
0.0
 10
3.758050
 20
6.574357
 30
0.0
 10
3.758050
 20
6.598853
 30
0.0
  0
SPLINE
  5
179
100
AcDbEntity
  8
Layer_1
 62
7
100
AcDbSpline
 70
8
 71
3
 72
8
 73
4
 74
0
 40
0
 40
0
 40
0
 40
0
 40
1
 40
1
 40
1
 40
1
 10
3.758050
 20
6.598853
 30
0.0
 10
3.758050
 20
6.623348
 30
0.0
 10
3.767490
 20
6.644141
 30
0.0
 10
3.786370
 20
6.661231
 30
0.0
  0
SPLINE
  5
17a
100
AcDbEntity
  8
Layer_1
 62
7
100
AcDbSpline
 70
8
 71
3
 72
8
 73
4
 74
0
 40
0
 40
0
 40
0
 40
0
 40
1
 40
1
 40
1
 40
1
 10
3.786370
 20
6.661231
 30
0.0
 10
3.805332
 20
6.678320
 30
0.0
 10
3.830072
 20
6.686865
 30
0.0
 10
3.860589
 20
6.686865
 30
0.0
  0
SPLINE
  5
17b
100
AcDbEntity
  8
Layer_1
 62
7
100
AcDbSpline
 70
8
 71
3
 72
8
 73
4
 74
0
 40
0
 40
0
 40
0
 40
0
 40
1
 40
1
 40
1
 40
1
 10
3.860589
 20
6.686865
 30
0.0
 10
3.884922
 20
6.686865
 30
0.0
 10
3.905511
 20
6.681860
 30
0.0
 10
3.922357
 20
6.671851
 30
0.0
  0
LWPOLYLINE
  5
17c
100
AcDbEntity
  8
Layer_1
 62
7
100
AcDbPolyline
 90
2
 70
0
 10
3.924310
 20
6.566138
 30
0.0
 10
3.924310
 20
6.528906
 30
0.0
  0
SPLINE
  5
17d
100
AcDbEntity
  8
Layer_1
 62
7
100
AcDbSpline
 70
8
 71
3
 72
8
 73
4
 74
0
 40
0
 40
0
 40
0
 40
0
 40
1
 40
1
 40
1
 40
1
 10
3.922357
 20
6.633887
 30
0.0
 10
3.901686
 20
6.645524
 30
0.0
 10
3.882114
 20
6.651343
 30
0.0
 10
3.863641
 20
6.651343
 30
0.0
  0
SPLINE
  5
17e
100
AcDbEntity
  8
Layer_1
 62
7
100
AcDbSpline
 70
8
 71
3
 72
8
 73
4
 74
0
 40
0
 40
0
 40
0
 40
0
 40
1
 40
1
 40
1
 40
1
 10
3.863641
 20
6.651343
 30
0.0
 10
3.845493
 20
6.651343
 30
0.0
 10
3.830641
 20
6.646460
 30
0.0
 10
3.819085
 20
6.636694
 30
0.0
  0
SPLINE
  5
17f
100
AcDbEntity
  8
Layer_1
 62
7
100
AcDbSpline
 70
8
 71
3
 72
8
 73
4
 74
0
 40
0
 40
0
 40
0
 40
0
 40
1
 40
1
 40
1
 40
1
 10
3.819085
 20
6.636694
 30
0.0
 10
3.807611
 20
6.627010
 30
0.0
 10
3.801873
 20
6.614640
 30
0.0
 10
3.801873
 20
6.599585
 30
0.0
  0
SPLINE
  5
180
100
AcDbEntity
  8
Layer_1
 62
7
100
AcDbSpline
 70
8
 71
3
 72
8
 73
4
 74
0
 40
0
 40
0
 40
0
 40
0
 40
1
 40
1
 40
1
 40
1
 10
3.801873
 20
6.599585
 30
0.0
 10
3.801873
 20
6.584448
 30
0.0
 10
3.807529
 20
6.571956
 30
0.0
 10
3.818841
 20
6.562109
 30
0.0
  0
SPLINE
  5
181
100
AcDbEntity
  8
Layer_1
 62
7
100
AcDbSpline
 70
8
 71
3
 72
8
 73
4
 74
0
 40
0
 40
0
 40
0
 40
0
 40
1
 40
1
 40
1
 40
1
 10
3.818841
 20
6.562109
 30
0.0
 10
3.830234
 20
6.552262
 30
0.0
 10
3.844801
 20
6.547339
 30
0.0
 10
3.862542
 20
6.547339
 30
0.0
  0
SPLINE
  5
182
100
AcDbEntity
  8
Layer_1
 62
7
100
AcDbSpline
 70
8
 71
3
 72
8
 73
4
 74
0
 40
0
 40
0
 40
0
 40
0
 40
1
 40
1
 40
1
 40
1
 10
3.862542
 20
6.547339
 30
0.0
 10
3.871331
 20
6.547339
 30
0.0
 10
3.879795
 20
6.548478
 30
0.0
 10
3.887933
 20
6.550756
 30
0.0
  0
SPLINE
  5
183
100
AcDbEntity
  8
Layer_1
 62
7
100
AcDbSpline
 70
8
 71
3
 72
8
 73
4
 74
0
 40
0
 40
0
 40
0
 40
0
 40
1
 40
1
 40
1
 40
1
 10
3.887933
 20
6.550756
 30
0.0
 10
3.896071
 20
6.553116
 30
0.0
 10
3.908197
 20
6.558243
 30
0.0
 10
3.924310
 20
6.566137
 30
0.0
  0
LWPOLYLINE
  5
184
100
AcDbEntity
  8
Layer_1
 62
7
100
AcDbPolyline
 90
2
 70
0
 10
3.922357
 20
6.671851
 30
0.0
 10
3.922357
 20
6.633887
 30
0.0
  0
SPLINE
  5
185
100
AcDbEntity
  8
Layer_1
 62
7
100
AcDbSpline
 70
8
 71
3
 72
8
 73
4
 74
0
 40
0
 40
0
 40
0
 40
0
 40
1
 40
1
 40
1
 40
1
 10
4.013543
 20
6.631690
 30
0.0
 10
4.031610
 20
6.631690
 30
0.0
 10
4.046909
 20
6.626400
 30
0.0
 10
4.059442
 20
6.615820
 30
0.0
  0
SPLINE
  5
186
100
AcDbEntity
  8
Layer_1
 62
7
100
AcDbSpline
 70
8
 71
3
 72
8
 73
4
 74
0
 40
0
 40
0
 40
0
 40
0
 40
1
 40
1
 40
1
 40
1
 10
4.059442
 20
6.615820
 30
0.0
 10
4.072056
 20
6.605241
 30
0.0
 10
4.078363
 20
6.590511
 30
0.0
 10
4.078363
 20
6.571631
 30
0.0
  0
SPLINE
  5
187
100
AcDbEntity
  8
Layer_1
 62
7
100
AcDbSpline
 70
8
 71
3
 72
8
 73
4
 74
0
 40
0
 40
0
 40
0
 40
0
 40
1
 40
1
 40
1
 40
1
 10
4.078363
 20
6.571631
 30
0.0
 10
4.078363
 20
6.552669
 30
0.0
 10
4.071974
 20
6.537980
 30
0.0
 10
4.059198
 20
6.527564
 30
0.0
  0
SPLINE
  5
188
100
AcDbEntity
  8
Layer_1
 62
7
100
AcDbSpline
 70
8
 71
3
 72
8
 73
4
 74
0
 40
0
 40
0
 40
0
 40
0
 40
1
 40
1
 40
1
 40
1
 10
4.059198
 20
6.527564
 30
0.0
 10
4.046421
 20
6.517147
 30
0.0
 10
4.031203
 20
6.511939
 30
0.0
 10
4.013543
 20
6.511939
 30
0.0
  0
SPLINE
  5
189
100
AcDbEntity
  8
Layer_1
 62
7
100
AcDbSpline
 70
8
 71
3
 72
8
 73
4
 74
0
 40
0
 40
0
 40
0
 40
0
 40
1
 40
1
 40
1
 40
1
 10
4.013543
 20
6.511939
 30
0.0
 10
3.994419
 20
6.511939
 30
0.0
 10
3.978753
 20
6.517472
 30
0.0
 10
3.966546
 20
6.528540
 30
0.0
  0
SPLINE
  5
18a
100
AcDbEntity
  8
Layer_1
 62
7
100
AcDbSpline
 70
8
 71
3
 72
8
 73
4
 74
0
 40
0
 40
0
 40
0
 40
0
 40
1
 40
1
 40
1
 40
1
 10
3.966546
 20
6.528540
 30
0.0
 10
3.954420
 20
6.539689
 30
0.0
 10
3.948357
 20
6.554134
 30
0.0
 10
3.948357
 20
6.571875
 30
0.0
  0
SPLINE
  5
18b
100
AcDbEntity
  8
Layer_1
 62
7
100
AcDbSpline
 70
8
 71
3
 72
8
 73
4
 74
0
 40
0
 40
0
 40
0
 40
0
 40
1
 40
1
 40
1
 40
1
 10
3.948357
 20
6.571875
 30
0.0
 10
3.948357
 20
6.589942
 30
0.0
 10
3.954542
 20
6.604427
 30
0.0
 10
3.966912
 20
6.615332
 30
0.0
  0
SPLINE
  5
18c
100
AcDbEntity
  8
Layer_1
 62
7
100
AcDbSpline
 70
8
 71
3
 72
8
 73
4
 74
0
 40
0
 40
0
 40
0
 40
0
 40
1
 40
1
 40
1
 40
1
 10
3.966912
 20
6.615332
 30
0.0
 10
3.979363
 20
6.626237
 30
0.0
 10
3.994907
 20
6.631690
 30
0.0
 10
4.013543
 20
6.631690
 30
0.0
  0
LWPOLYLINE
  5
18d
100
AcDbEntity
  8
Layer_1
 62
7
100
AcDbPolyline
 90
1
 70
1
 10
3.924310
 20
6.566137
 30
0.0
  0
SPLINE
  5
18e
100
AcDbEntity
  8
Layer_1
 62
7
100
AcDbSpline
 70
8
 71
3
 72
8
 73
4
 74
0
 40
0
 40
0
 40
0
 40
0
 40
1
 40
1
 40
1
 40
1
 10
4.013543
 20
6.533423
 30
0.0
 10
4.030877
 20
6.533423
 30
0.0
 10
4.039544
 20
6.546484
 30
0.0
 10
4.039544
 20
6.572607
 30
0.0
  0
SPLINE
  5
18f
100
AcDbEntity
  8
Layer_1
 62
7
100
AcDbSpline
 70
8
 71
3
 72
8
 73
4
 74
0
 40
0
 40
0
 40
0
 40
0
 40
1
 40
1
 40
1
 40
1
 10
4.039544
 20
6.572607
 30
0.0
 10
4.039544
 20
6.597591
 30
0.0
 10
4.030877
 20
6.610083
 30
0.0
 10
4.013543
 20
6.610083
 30
0.0
  0
SPLINE
  5
190
100
AcDbEntity
  8
Layer_1
 62
7
100
AcDbSpline
 70
8
 71
3
 72
8
 73
4
 74
0
 40
0
 40
0
 40
0
 40
0
 40
1
 40
1
 40
1
 40
1
 10
4.013543
 20
6.610083
 30
0.0
 10
4.005243
 20
6.610083
 30
0.0
 10
3.998732
 20
6.606787
 30
0.0
 10
3.994012
 20
6.600195
 30
0.0
  0
SPLINE
  5
191
100
AcDbEntity
  8
Layer_1
 62
7
100
AcDbSpline
 70
8
 71
3
 72
8
 73
4
 74
0
 40
0
 40
0
 40
0
 40
0
 40
1
 40
1
 40
1
 40
1
 10
3.994012
 20
6.600195
 30
0.0
 10
3.989373
 20
6.593604
 30
0.0
 10
3.987054
 20
6.584164
 30
0.0
 10
3.987054
 20
6.571875
 30
0.0
  0
SPLINE
  5
192
100
AcDbEntity
  8
Layer_1
 62
7
100
AcDbSpline
 70
8
 71
3
 72
8
 73
4
 74
0
 40
0
 40
0
 40
0
 40
0
 40
1
 40
1
 40
1
 40
1
 10
3.987054
 20
6.571875
 30
0.0
 10
3.987054
 20
6.546240
 30
0.0
 10
3.995884
 20
6.533423
 30
0.0
 10
4.013543
 20
6.533423
 30
0.0
  0
LWPOLYLINE
  5
193
100
AcDbEntity
  8
Layer_1
 62
7
100
AcDbPolyline
 90
1
 70
1
 10
4.013543
 20
6.631690
 30
0.0
  0
LWPOLYLINE
  5
194
100
AcDbEntity
  8
Layer_1
 62
7
100
AcDbPolyline
 90
1
 70
1
 10
4.013543
 20
6.533423
 30
0.0
  0
SPLINE
  5
195
100
AcDbEntity
  8
Layer_1
 62
7
100
AcDbSpline
 70
8
 71
3
 72
8
 73
4
 74
0
 40
0
 40
0
 40
0
 40
0
 40
1
 40
1
 40
1
 40
1
 10
4.139642
 20
6.614600
 30
0.0
 10
4.151930
 20
6.625993
 30
0.0
 10
4.165277
 20
6.631690
 30
0.0
 10
4.179681
 20
6.631690
 30
0.0
  0
SPLINE
  5
196
100
AcDbEntity
  8
Layer_1
 62
7
100
AcDbSpline
 70
8
 71
3
 72
8
 73
4
 74
0
 40
0
 40
0
 40
0
 40
0
 40
1
 40
1
 40
1
 40
1
 10
4.179681
 20
6.631690
 30
0.0
 10
4.199456
 20
6.631690
 30
0.0
 10
4.213291
 20
6.623511
 30
0.0
 10
4.221185
 20
6.607154
 30
0.0
  0
SPLINE
  5
197
100
AcDbEntity
  8
Layer_1
 62
7
100
AcDbSpline
 70
8
 71
3
 72
8
 73
4
 74
0
 40
0
 40
0
 40
0
 40
0
 40
1
 40
1
 40
1
 40
1
 10
4.221185
 20
6.607154
 30
0.0
 10
4.235101
 20
6.623511
 30
0.0
 10
4.250237
 20
6.631690
 30
0.0
 10
4.266595
 20
6.631690
 30
0.0
  0
SPLINE
  5
198
100
AcDbEntity
  8
Layer_1
 62
7
100
AcDbSpline
 70
8
 71
3
 72
8
 73
4
 74
0
 40
0
 40
0
 40
0
 40
0
 40
1
 40
1
 40
1
 40
1
 10
4.266595
 20
6.631690
 30
0.0
 10
4.279860
 20
6.631690
 30
0.0
 10
4.290684
 20
6.627661
 30
0.0
 10
4.299066
 20
6.619605
 30
0.0
  0
SPLINE
  5
199
100
AcDbEntity
  8
Layer_1
 62
7
100
AcDbSpline
 70
8
 71
3
 72
8
 73
4
 74
0
 40
0
 40
0
 40
0
 40
0
 40
1
 40
1
 40
1
 40
1
 10
4.299066
 20
6.619605
 30
0.0
 10
4.307448
 20
6.611548
 30
0.0
 10
4.311639
 20
6.601050
 30
0.0
 10
4.311639
 20
6.588111
 30
0.0
  0
LWPOLYLINE
  5
19a
100
AcDbEntity
  8
Layer_1
 62
7
100
AcDbPolyline
 90
2
 70
0
 10
4.139642
 20
6.629370
 30
0.0
 10
4.139642
 20
6.614600
 30
0.0
  0
SPLINE
  5
19b
100
AcDbEntity
  8
Layer_1
 62
7
100
AcDbSpline
 70
8
 71
3
 72
8
 73
4
 74
0
 40
0
 40
0
 40
0
 40
0
 40
1
 40
1
 40
1
 40
1
 10
4.275384
 20
6.581641
 30
0.0
 10
4.275384
 20
6.589779
 30
0.0
 10
4.273512
 20
6.596086
 30
0.0
 10
4.269769
 20
6.600562
 30
0.0
  0
SPLINE
  5
19c
100
AcDbEntity
  8
Layer_1
 62
7
100
AcDbSpline
 70
8
 71
3
 72
8
 73
4
 74
0
 40
0
 40
0
 40
0
 40
0
 40
1
 40
1
 40
1
 40
1
 10
4.269769
 20
6.600562
 30
0.0
 10
4.266025
 20
6.605119
 30
0.0
 10
4.260817
 20
6.607398
 30
0.0
 10
4.254144
 20
6.607398
 30
0.0
  0
SPLINE
  5
19d
100
AcDbEntity
  8
Layer_1
 62
7
100
AcDbSpline
 70
8
 71
3
 72
8
 73
4
 74
0
 40
0
 40
0
 40
0
 40
0
 40
1
 40
1
 40
1
 40
1
 10
4.254144
 20
6.607398
 30
0.0
 10
4.243564
 20
6.607398
 30
0.0
 10
4.234043
 20
6.600887
 30
0.0
 10
4.225579
 20
6.587867
 30
0.0
  0
LWPOLYLINE
  5
19e
100
AcDbEntity
  8
Layer_1
 62
7
100
AcDbPolyline
 90
4
 70
0
 10
4.311639
 20
6.588111
 30
0.0
 10
4.311639
 20
6.514136
 30
0.0
 10
4.275384
 20
6.514136
 30
0.0
 10
4.275384
 20
6.581641
 30
0.0
  0
SPLINE
  5
19f
100
AcDbEntity
  8
Layer_1
 62
7
100
AcDbSpline
 70
8
 71
3
 72
8
 73
4
 74
0
 40
0
 40
0
 40
0
 40
0
 40
1
 40
1
 40
1
 40
1
 10
4.189446
 20
6.582373
 30
0.0
 10
4.189446
 20
6.590430
 30
0.0
 10
4.187412
 20
6.596615
 30
0.0
 10
4.183343
 20
6.600928
 30
0.0
  0
SPLINE
  5
1a0
100
AcDbEntity
  8
Layer_1
 62
7
100
AcDbSpline
 70
8
 71
3
 72
8
 73
4
 74
0
 40
0
 40
0
 40
0
 40
0
 40
1
 40
1
 40
1
 40
1
 10
4.183343
 20
6.600928
 30
0.0
 10
4.179355
 20
6.605241
 30
0.0
 10
4.174025
 20
6.607398
 30
0.0
 10
4.167352
 20
6.607398
 30
0.0
  0
SPLINE
  5
1a1
100
AcDbEntity
  8
Layer_1
 62
7
100
AcDbSpline
 70
8
 71
3
 72
8
 73
4
 74
0
 40
0
 40
0
 40
0
 40
0
 40
1
 40
1
 40
1
 40
1
 10
4.167352
 20
6.607398
 30
0.0
 10
4.157830
 20
6.607398
 30
0.0
 10
4.148594
 20
6.602067
 30
0.0
 10
4.139642
 20
6.591406
 30
0.0
  0
LWPOLYLINE
  5
1a2
100
AcDbEntity
  8
Layer_1
 62
7
100
AcDbPolyline
 90
4
 70
0
 10
4.225579
 20
6.587867
 30
0.0
 10
4.225579
 20
6.514136
 30
0.0
 10
4.189446
 20
6.514136
 30
0.0
 10
4.189446
 20
6.582373
 30
0.0
  0
LWPOLYLINE
  5
1a3
100
AcDbEntity
  8
Layer_1
 62
7
100
AcDbPolyline
 90
5
 70
0
 10
4.139642
 20
6.591406
 30
0.0
 10
4.139642
 20
6.514136
 30
0.0
 10
4.103387
 20
6.514136
 30
0.0
 10
4.103387
 20
6.629370
 30
0.0
 10
4.139642
 20
6.629370
 30
0.0
  0
SPLINE
  5
1a4
100
AcDbEntity
  8
Layer_1
 62
7
100
AcDbSpline
 70
8
 71
3
 72
8
 73
4
 74
0
 40
0
 40
0
 40
0
 40
0
 40
1
 40
1
 40
1
 40
1
 10
4.489373
 20
6.684668
 30
0.0
 10
4.506951
 20
6.684668
 30
0.0
 10
4.520745
 20
6.680436
 30
0.0
 10
4.530755
 20
6.671973
 30
0.0
  0
SPLINE
  5
1a5
100
AcDbEntity
  8
Layer_1
 62
7
100
AcDbSpline
 70
8
 71
3
 72
8
 73
4
 74
0
 40
0
 40
0
 40
0
 40
0
 40
1
 40
1
 40
1
 40
1
 10
4.530755
 20
6.671973
 30
0.0
 10
4.540846
 20
6.663509
 30
0.0
 10
4.545892
 20
6.653499
 30
0.0
 10
4.545892
 20
6.641943
 30
0.0
  0
SPLINE
  5
1a6
100
AcDbEntity
  8
Layer_1
 62
7
100
AcDbSpline
 70
8
 71
3
 72
8
 73
4
 74
0
 40
0
 40
0
 40
0
 40
0
 40
1
 40
1
 40
1
 40
1
 10
4.545892
 20
6.641943
 30
0.0
 10
4.545892
 20
6.627132
 30
0.0
 10
4.538120
 20
6.615780
 30
0.0
 10
4.522576
 20
6.607886
 30
0.0
  0
SPLINE
  5
1a7
100
AcDbEntity
  8
Layer_1
 62
7
100
AcDbSpline
 70
8
 71
3
 72
8
 73
4
 74
0
 40
0
 40
0
 40
0
 40
0
 40
1
 40
1
 40
1
 40
1
 10
4.522576
 20
6.607886
 30
0.0
 10
4.534295
 20
6.604793
 30
0.0
 10
4.543247
 20
6.599341
 30
0.0
 10
4.549432
 20
6.591528
 30
0.0
  0
SPLINE
  5
1a8
100
AcDbEntity
  8
Layer_1
 62
7
100
AcDbSpline
 70
8
 71
3
 72
8
 73
4
 74
0
 40
0
 40
0
 40
0
 40
0
 40
1
 40
1
 40
1
 40
1
 10
4.549432
 20
6.591528
 30
0.0
 10
4.555698
 20
6.583716
 30
0.0
 10
4.558831
 20
6.574601
 30
0.0
 10
4.558831
 20
6.564185
 30
0.0
  0
SPLINE
  5
1a9
100
AcDbEntity
  8
Layer_1
 62
7
100
AcDbSpline
 70
8
 71
3
 72
8
 73
4
 74
0
 40
0
 40
0
 40
0
 40
0
 40
1
 40
1
 40
1
 40
1
 10
4.558831
 20
6.564185
 30
0.0
 10
4.558831
 20
6.549374
 30
0.0
 10
4.553745
 20
6.537329
 30
0.0
 10
4.543572
 20
6.528052
 30
0.0
  0
SPLINE
  5
1aa
100
AcDbEntity
  8
Layer_1
 62
7
100
AcDbSpline
 70
8
 71
3
 72
8
 73
4
 74
0
 40
0
 40
0
 40
0
 40
0
 40
1
 40
1
 40
1
 40
1
 10
4.543572
 20
6.528052
 30
0.0
 10
4.533400
 20
6.518775
 30
0.0
 10
4.518426
 20
6.514136
 30
0.0
 10
4.498651
 20
6.514136
 30
0.0
  0
LWPOLYLINE
  5
1ab
100
AcDbEntity
  8
Layer_1
 62
7
100
AcDbPolyline
 90
2
 70
0
 10
4.415643
 20
6.684668
 30
0.0
 10
4.489373
 20
6.684668
 30
0.0
  0
LWPOLYLINE
  5
1ac
100
AcDbEntity
  8
Layer_1
 62
7
100
AcDbPolyline
 90
3
 70
0
 10
4.498651
 20
6.514136
 30
0.0
 10
4.415643
 20
6.514136
 30
0.0
 10
4.415643
 20
6.684668
 30
0.0
  0
SPLINE
  5
1ad
100
AcDbEntity
  8
Layer_1
 62
7
100
AcDbSpline
 70
8
 71
3
 72
8
 73
4
 74
0
 40
0
 40
0
 40
0
 40
0
 40
1
 40
1
 40
1
 40
1
 10
4.480340
 20
6.616919
 30
0.0
 10
4.487176
 20
6.616919
 30
0.0
 10
4.492506
 20
6.618669
 30
0.0
 10
4.496331
 20
6.622168
 30
0.0
  0
SPLINE
  5
1ae
100
AcDbEntity
  8
Layer_1
 62
7
100
AcDbSpline
 70
8
 71
3
 72
8
 73
4
 74
0
 40
0
 40
0
 40
0
 40
0
 40
1
 40
1
 40
1
 40
1
 10
4.496331
 20
6.622168
 30
0.0
 10
4.500156
 20
6.625668
 30
0.0
 10
4.502069
 20
6.630062
 30
0.0
 10
4.502069
 20
6.635352
 30
0.0
  0
SPLINE
  5
1af
100
AcDbEntity
  8
Layer_1
 62
7
100
AcDbSpline
 70
8
 71
3
 72
8
 73
4
 74
0
 40
0
 40
0
 40
0
 40
0
 40
1
 40
1
 40
1
 40
1
 10
4.502069
 20
6.635352
 30
0.0
 10
4.502069
 20
6.640560
 30
0.0
 10
4.500156
 20
6.644873
 30
0.0
 10
4.496331
 20
6.648291
 30
0.0
  0
SPLINE
  5
1b0
100
AcDbEntity
  8
Layer_1
 62
7
100
AcDbSpline
 70
8
 71
3
 72
8
 73
4
 74
0
 40
0
 40
0
 40
0
 40
0
 40
1
 40
1
 40
1
 40
1
 10
4.496331
 20
6.648291
 30
0.0
 10
4.492506
 20
6.651709
 30
0.0
 10
4.487176
 20
6.653418
 30
0.0
 10
4.480340
 20
6.653418
 30
0.0
  0
LWPOLYLINE
  5
1b1
100
AcDbEntity
  8
Layer_1
 62
7
100
AcDbPolyline
 90
3
 70
0
 10
4.458123
 20
6.653418
 30
0.0
 10
4.458123
 20
6.616919
 30
0.0
 10
4.480340
 20
6.616919
 30
0.0
  0
LWPOLYLINE
  5
1b2
100
AcDbEntity
  8
Layer_1
 62
7
100
AcDbPolyline
 90
2
 70
0
 10
4.480340
 20
6.653418
 30
0.0
 10
4.458123
 20
6.653418
 30
0.0
  0
SPLINE
  5
1b3
100
AcDbEntity
  8
Layer_1
 62
7
100
AcDbSpline
 70
8
 71
3
 72
8
 73
4
 74
0
 40
0
 40
0
 40
0
 40
0
 40
1
 40
1
 40
1
 40
1
 10
4.482049
 20
6.545386
 30
0.0
 10
4.493361
 20
6.545386
 30
0.0
 10
4.501499
 20
6.546932
 30
0.0
 10
4.506463
 20
6.550024
 30
0.0
  0
SPLINE
  5
1b4
100
AcDbEntity
  8
Layer_1
 62
7
100
AcDbSpline
 70
8
 71
3
 72
8
 73
4
 74
0
 40
0
 40
0
 40
0
 40
0
 40
1
 40
1
 40
1
 40
1
 10
4.506463
 20
6.550024
 30
0.0
 10
4.511427
 20
6.553198
 30
0.0
 10
4.513909
 20
6.558651
 30
0.0
 10
4.513909
 20
6.566382
 30
0.0
  0
SPLINE
  5
1b5
100
AcDbEntity
  8
Layer_1
 62
7
100
AcDbSpline
 70
8
 71
3
 72
8
 73
4
 74
0
 40
0
 40
0
 40
0
 40
0
 40
1
 40
1
 40
1
 40
1
 10
4.513909
 20
6.566382
 30
0.0
 10
4.513909
 20
6.572323
 30
0.0
 10
4.511549
 20
6.577002
 30
0.0
 10
4.506829
 20
6.580420
 30
0.0
  0
SPLINE
  5
1b6
100
AcDbEntity
  8
Layer_1
 62
7
100
AcDbSpline
 70
8
 71
3
 72
8
 73
4
 74
0
 40
0
 40
0
 40
0
 40
0
 40
1
 40
1
 40
1
 40
1
 10
4.506829
 20
6.580420
 30
0.0
 10
4.502109
 20
6.583919
 30
0.0
 10
4.495802
 20
6.585669
 30
0.0
 10
4.487908
 20
6.585669
 30
0.0
  0
LWPOLYLINE
  5
1b7
100
AcDbEntity
  8
Layer_1
 62
7
100
AcDbPolyline
 90
3
 70
0
 10
4.458123
 20
6.585669
 30
0.0
 10
4.458123
 20
6.545386
 30
0.0
 10
4.482049
 20
6.545386
 30
0.0
  0
SPLINE
  5
1b8
100
AcDbEntity
  8
Layer_1
 62
7
100
AcDbSpline
 70
8
 71
3
 72
8
 73
4
 74
0
 40
0
 40
0
 40
0
 40
0
 40
1
 40
1
 40
1
 40
1
 10
4.645623
 20
6.631690
 30
0.0
 10
4.663690
 20
6.631690
 30
0.0
 10
4.678989
 20
6.626400
 30
0.0
 10
4.691522
 20
6.615820
 30
0.0
  0
SPLINE
  5
1b9
100
AcDbEntity
  8
Layer_1
 62
7
100
AcDbSpline
 70
8
 71
3
 72
8
 73
4
 74
0
 40
0
 40
0
 40
0
 40
0
 40
1
 40
1
 40
1
 40
1
 10
4.691522
 20
6.615820
 30
0.0
 10
4.704136
 20
6.605241
 30
0.0
 10
4.710443
 20
6.590511
 30
0.0
 10
4.710443
 20
6.571631
 30
0.0
  0
SPLINE
  5
1ba
100
AcDbEntity
  8
Layer_1
 62
7
100
AcDbSpline
 70
8
 71
3
 72
8
 73
4
 74
0
 40
0
 40
0
 40
0
 40
0
 40
1
 40
1
 40
1
 40
1
 10
4.710443
 20
6.571631
 30
0.0
 10
4.710443
 20
6.552669
 30
0.0
 10
4.704054
 20
6.537980
 30
0.0
 10
4.691278
 20
6.527564
 30
0.0
  0
SPLINE
  5
1bb
100
AcDbEntity
  8
Layer_1
 62
7
100
AcDbSpline
 70
8
 71
3
 72
8
 73
4
 74
0
 40
0
 40
0
 40
0
 40
0
 40
1
 40
1
 40
1
 40
1
 10
4.691278
 20
6.527564
 30
0.0
 10
4.678501
 20
6.517147
 30
0.0
 10
4.663283
 20
6.511939
 30
0.0
 10
4.645623
 20
6.511939
 30
0.0
  0
SPLINE
  5
1bc
100
AcDbEntity
  8
Layer_1
 62
7
100
AcDbSpline
 70
8
 71
3
 72
8
 73
4
 74
0
 40
0
 40
0
 40
0
 40
0
 40
1
 40
1
 40
1
 40
1
 10
4.645623
 20
6.511939
 30
0.0
 10
4.626499
 20
6.511939
 30
0.0
 10
4.610833
 20
6.517472
 30
0.0
 10
4.598626
 20
6.528540
 30
0.0
  0
SPLINE
  5
1bd
100
AcDbEntity
  8
Layer_1
 62
7
100
AcDbSpline
 70
8
 71
3
 72
8
 73
4
 74
0
 40
0
 40
0
 40
0
 40
0
 40
1
 40
1
 40
1
 40
1
 10
4.598626
 20
6.528540
 30
0.0
 10
4.586501
 20
6.539689
 30
0.0
 10
4.580438
 20
6.554134
 30
0.0
 10
4.580438
 20
6.571875
 30
0.0
  0
SPLINE
  5
1be
100
AcDbEntity
  8
Layer_1
 62
7
100
AcDbSpline
 70
8
 71
3
 72
8
 73
4
 74
0
 40
0
 40
0
 40
0
 40
0
 40
1
 40
1
 40
1
 40
1
 10
4.580438
 20
6.571875
 30
0.0
 10
4.580438
 20
6.589942
 30
0.0
 10
4.586623
 20
6.604427
 30
0.0
 10
4.598993
 20
6.615332
 30
0.0
  0
SPLINE
  5
1bf
100
AcDbEntity
  8
Layer_1
 62
7
100
AcDbSpline
 70
8
 71
3
 72
8
 73
4
 74
0
 40
0
 40
0
 40
0
 40
0
 40
1
 40
1
 40
1
 40
1
 10
4.598993
 20
6.615332
 30
0.0
 10
4.611444
 20
6.626237
 30
0.0
 10
4.626987
 20
6.631690
 30
0.0
 10
4.645623
 20
6.631690
 30
0.0
  0
LWPOLYLINE
  5
1c0
100
AcDbEntity
  8
Layer_1
 62
7
100
AcDbPolyline
 90
2
 70
0
 10
4.487908
 20
6.585669
 30
0.0
 10
4.458123
 20
6.585669
 30
0.0
  0
SPLINE
  5
1c1
100
AcDbEntity
  8
Layer_1
 62
7
100
AcDbSpline
 70
8
 71
3
 72
8
 73
4
 74
0
 40
0
 40
0
 40
0
 40
0
 40
1
 40
1
 40
1
 40
1
 10
4.645623
 20
6.533423
 30
0.0
 10
4.662957
 20
6.533423
 30
0.0
 10
4.671624
 20
6.546484
 30
0.0
 10
4.671624
 20
6.572607
 30
0.0
  0
SPLINE
  5
1c2
100
AcDbEntity
  8
Layer_1
 62
7
100
AcDbSpline
 70
8
 71
3
 72
8
 73
4
 74
0
 40
0
 40
0
 40
0
 40
0
 40
1
 40
1
 40
1
 40
1
 10
4.671624
 20
6.572607
 30
0.0
 10
4.671624
 20
6.597591
 30
0.0
 10
4.662957
 20
6.610083
 30
0.0
 10
4.645623
 20
6.610083
 30
0.0
  0
SPLINE
  5
1c3
100
AcDbEntity
  8
Layer_1
 62
7
100
AcDbSpline
 70
8
 71
3
 72
8
 73
4
 74
0
 40
0
 40
0
 40
0
 40
0
 40
1
 40
1
 40
1
 40
1
 10
4.645623
 20
6.610083
 30
0.0
 10
4.637322
 20
6.610083
 30
0.0
 10
4.630812
 20
6.606787
 30
0.0
 10
4.626092
 20
6.600195
 30
0.0
  0
SPLINE
  5
1c4
100
AcDbEntity
  8
Layer_1
 62
7
100
AcDbSpline
 70
8
 71
3
 72
8
 73
4
 74
0
 40
0
 40
0
 40
0
 40
0
 40
1
 40
1
 40
1
 40
1
 10
4.626092
 20
6.600195
 30
0.0
 10
4.621453
 20
6.593604
 30
0.0
 10
4.619134
 20
6.584164
 30
0.0
 10
4.619134
 20
6.571875
 30
0.0
  0
SPLINE
  5
1c5
100
AcDbEntity
  8
Layer_1
 62
7
100
AcDbSpline
 70
8
 71
3
 72
8
 73
4
 74
0
 40
0
 40
0
 40
0
 40
0
 40
1
 40
1
 40
1
 40
1
 10
4.619134
 20
6.571875
 30
0.0
 10
4.619134
 20
6.546240
 30
0.0
 10
4.627964
 20
6.533423
 30
0.0
 10
4.645623
 20
6.533423
 30
0.0
  0
LWPOLYLINE
  5
1c6
100
AcDbEntity
  8
Layer_1
 62
7
100
AcDbPolyline
 90
1
 70
1
 10
4.645623
 20
6.631690
 30
0.0
  0
LWPOLYLINE
  5
1c7
100
AcDbEntity
  8
Layer_1
 62
7
100
AcDbPolyline
 90
1
 70
1
 10
4.645623
 20
6.533423
 30
0.0
  0
SPLINE
  5
1c8
100
AcDbEntity
  8
Layer_1
 62
7
100
AcDbSpline
 70
8
 71
3
 72
8
 73
4
 74
0
 40
0
 40
0
 40
0
 40
0
 40
1
 40
1
 40
1
 40
1
 10
4.852410
 20
6.522437
 30
0.0
 10
4.840366
 20
6.515438
 30
0.0
 10
4.829054
 20
6.511939
 30
0.0
 10
4.818475
 20
6.511939
 30
0.0
  0
SPLINE
  5
1c9
100
AcDbEntity
  8
Layer_1
 62
7
100
AcDbSpline
 70
8
 71
3
 72
8
 73
4
 74
0
 40
0
 40
0
 40
0
 40
0
 40
1
 40
1
 40
1
 40
1
 10
4.818475
 20
6.511939
 30
0.0
 10
4.807082
 20
6.511939
 30
0.0
 10
4.800327
 20
6.516252
 30
0.0
 10
4.798211
 20
6.524878
 30
0.0
  0
SPLINE
  5
1ca
100
AcDbEntity
  8
Layer_1
 62
7
100
AcDbSpline
 70
8
 71
3
 72
8
 73
4
 74
0
 40
0
 40
0
 40
0
 40
0
 40
1
 40
1
 40
1
 40
1
 10
4.798211
 20
6.524878
 30
0.0
 10
4.785597
 20
6.516252
 30
0.0
 10
4.772943
 20
6.511939
 30
0.0
 10
4.760247
 20
6.511939
 30
0.0
  0
SPLINE
  5
1cb
100
AcDbEntity
  8
Layer_1
 62
7
100
AcDbSpline
 70
8
 71
3
 72
8
 73
4
 74
0
 40
0
 40
0
 40
0
 40
0
 40
1
 40
1
 40
1
 40
1
 10
4.760247
 20
6.511939
 30
0.0
 10
4.751296
 20
6.511939
 30
0.0
 10
4.743686
 20
6.514746
 30
0.0
 10
4.737420
 20
6.520361
 30
0.0
  0
SPLINE
  5
1cc
100
AcDbEntity
  8
Layer_1
 62
7
100
AcDbSpline
 70
8
 71
3
 72
8
 73
4
 74
0
 40
0
 40
0
 40
0
 40
0
 40
1
 40
1
 40
1
 40
1
 10
4.737420
 20
6.520361
 30
0.0
 10
4.731154
 20
6.526058
 30
0.0
 10
4.728021
 20
6.532650
 30
0.0
 10
4.728021
 20
6.540137
 30
0.0
  0
SPLINE
  5
1cd
100
AcDbEntity
  8
Layer_1
 62
7
100
AcDbSpline
 70
8
 71
3
 72
8
 73
4
 74
0
 40
0
 40
0
 40
0
 40
0
 40
1
 40
1
 40
1
 40
1
 10
4.728021
 20
6.540137
 30
0.0
 10
4.728021
 20
6.550147
 30
0.0
 10
4.731235
 20
6.558203
 30
0.0
 10
4.737664
 20
6.564307
 30
0.0
  0
SPLINE
  5
1ce
100
AcDbEntity
  8
Layer_1
 62
7
100
AcDbSpline
 70
8
 71
3
 72
8
 73
4
 74
0
 40
0
 40
0
 40
0
 40
0
 40
1
 40
1
 40
1
 40
1
 10
4.737664
 20
6.564307
 30
0.0
 10
4.744175
 20
6.570492
 30
0.0
 10
4.763787
 20
6.578426
 30
0.0
 10
4.796502
 20
6.588111
 30
0.0
  0
SPLINE
  5
1cf
100
AcDbEntity
  8
Layer_1
 62
7
100
AcDbSpline
 70
8
 71
3
 72
8
 73
4
 74
0
 40
0
 40
0
 40
0
 40
0
 40
1
 40
1
 40
1
 40
1
 10
4.796502
 20
6.588111
 30
0.0
 10
4.797316
 20
6.600969
 30
0.0
 10
4.790643
 20
6.607398
 30
0.0
 10
4.776483
 20
6.607398
 30
0.0
  0
SPLINE
  5
1d0
100
AcDbEntity
  8
Layer_1
 62
7
100
AcDbSpline
 70
8
 71
3
 72
8
 73
4
 74
0
 40
0
 40
0
 40
0
 40
0
 40
1
 40
1
 40
1
 40
1
 10
4.776483
 20
6.607398
 30
0.0
 10
4.761102
 20
6.607398
 30
0.0
 10
4.746942
 20
6.600969
 30
0.0
 10
4.734002
 20
6.588111
 30
0.0
  0
LWPOLYLINE
  5
1d1
100
AcDbEntity
  8
Layer_1
 62
7
100
AcDbPolyline
 90
2
 70
0
 10
4.852410
 20
6.542578
 30
0.0
 10
4.852410
 20
6.522437
 30
0.0
  0
SPLINE
  5
1d2
100
AcDbEntity
  8
Layer_1
 62
7
100
AcDbSpline
 70
8
 71
3
 72
8
 73
4
 74
0
 40
0
 40
0
 40
0
 40
0
 40
1
 40
1
 40
1
 40
1
 10
4.734002
 20
6.617652
 30
0.0
 10
4.749139
 20
6.627010
 30
0.0
 10
4.765781
 20
6.631690
 30
0.0
 10
4.783929
 20
6.631690
 30
0.0
  0
SPLINE
  5
1d3
100
AcDbEntity
  8
Layer_1
 62
7
100
AcDbSpline
 70
8
 71
3
 72
8
 73
4
 74
0
 40
0
 40
0
 40
0
 40
0
 40
1
 40
1
 40
1
 40
1
 10
4.783929
 20
6.631690
 30
0.0
 10
4.816481
 20
6.631690
 30
0.0
 10
4.832757
 20
6.620012
 30
0.0
 10
4.832757
 20
6.596656
 30
0.0
  0
LWPOLYLINE
  5
1d4
100
AcDbEntity
  8
Layer_1
 62
7
100
AcDbPolyline
 90
2
 70
0
 10
4.734002
 20
6.588111
 30
0.0
 10
4.734002
 20
6.617652
 30
0.0
  0
SPLINE
  5
1d5
100
AcDbEntity
  8
Layer_1
 62
7
100
AcDbSpline
 70
8
 71
3
 72
8
 73
4
 74
0
 40
0
 40
0
 40
0
 40
0
 40
1
 40
1
 40
1
 40
1
 10
4.832757
 20
6.544165
 30
0.0
 10
4.832757
 20
6.538794
 30
0.0
 10
4.834751
 20
6.536109
 30
0.0
 10
4.838739
 20
6.536109
 30
0.0
  0
SPLINE
  5
1d6
100
AcDbEntity
  8
Layer_1
 62
7
100
AcDbSpline
 70
8
 71
3
 72
8
 73
4
 74
0
 40
0
 40
0
 40
0
 40
0
 40
1
 40
1
 40
1
 40
1
 10
4.838739
 20
6.536109
 30
0.0
 10
4.841750
 20
6.536109
 30
0.0
 10
4.846307
 20
6.538265
 30
0.0
 10
4.852410
 20
6.542578
 30
0.0
  0
LWPOLYLINE
  5
1d7
100
AcDbEntity
  8
Layer_1
 62
7
100
AcDbPolyline
 90
2
 70
0
 10
4.832757
 20
6.596656
 30
0.0
 10
4.832757
 20
6.544165
 30
0.0
  0
LWPOLYLINE
  5
1d8
100
AcDbEntity
  8
Layer_1
 62
7
100
AcDbPolyline
 90
1
 70
1
 10
4.852410
 20
6.542578
 30
0.0
  0
SPLINE
  5
1d9
100
AcDbEntity
  8
Layer_1
 62
7
100
AcDbSpline
 70
8
 71
3
 72
8
 73
4
 74
0
 40
0
 40
0
 40
0
 40
0
 40
1
 40
1
 40
1
 40
1
 10
4.796502
 20
6.569922
 30
0.0
 10
4.784377
 20
6.565690
 30
0.0
 10
4.776035
 20
6.561865
 30
0.0
 10
4.771478
 20
6.558447
 30
0.0
  0
SPLINE
  5
1da
100
AcDbEntity
  8
Layer_1
 62
7
100
AcDbSpline
 70
8
 71
3
 72
8
 73
4
 74
0
 40
0
 40
0
 40
0
 40
0
 40
1
 40
1
 40
1
 40
1
 10
4.771478
 20
6.558447
 30
0.0
 10
4.767002
 20
6.555111
 30
0.0
 10
4.764764
 20
6.550838
 30
0.0
 10
4.764764
 20
6.545630
 30
0.0
  0
SPLINE
  5
1db
100
AcDbEntity
  8
Layer_1
 62
7
100
AcDbSpline
 70
8
 71
3
 72
8
 73
4
 74
0
 40
0
 40
0
 40
0
 40
0
 40
1
 40
1
 40
1
 40
1
 10
4.764764
 20
6.545630
 30
0.0
 10
4.764764
 20
6.542293
 30
0.0
 10
4.765903
 20
6.539404
 30
0.0
 10
4.768181
 20
6.536963
 30
0.0
  0
SPLINE
  5
1dc
100
AcDbEntity
  8
Layer_1
 62
7
100
AcDbSpline
 70
8
 71
3
 72
8
 73
4
 74
0
 40
0
 40
0
 40
0
 40
0
 40
1
 40
1
 40
1
 40
1
 10
4.768181
 20
6.536963
 30
0.0
 10
4.770459
 20
6.534603
 30
0.0
 10
4.773226
 20
6.533424
 30
0.0
 10
4.776482
 20
6.533424
 30
0.0
  0
SPLINE
  5
1dd
100
AcDbEntity
  8
Layer_1
 62
7
100
AcDbSpline
 70
8
 71
3
 72
8
 73
4
 74
0
 40
0
 40
0
 40
0
 40
0
 40
1
 40
1
 40
1
 40
1
 10
4.776482
 20
6.533424
 30
0.0
 10
4.783318
 20
6.533424
 30
0.0
 10
4.789991
 20
6.536313
 30
0.0
 10
4.796502
 20
6.542091
 30
0.0
  0
LWPOLYLINE
  5
1de
100
AcDbEntity
  8
Layer_1
 62
7
100
AcDbPolyline
 90
2
 70
0
 10
4.796502
 20
6.542090
 30
0.0
 10
4.796502
 20
6.569922
 30
0.0
  0
LWPOLYLINE
  5
1df
100
AcDbEntity
  8
Layer_1
 62
7
100
AcDbPolyline
 90
1
 70
1
 10
4.796502
 20
6.542091
 30
0.0
  0
SPLINE
  5
1e0
100
AcDbEntity
  8
Layer_1
 62
7
100
AcDbSpline
 70
8
 71
3
 72
8
 73
4
 74
0
 40
0
 40
0
 40
0
 40
0
 40
1
 40
1
 40
1
 40
1
 10
4.905144
 20
6.596411
 30
0.0
 10
4.915642
 20
6.619930
 30
0.0
 10
4.927890
 20
6.631690
 30
0.0
 10
4.941887
 20
6.631690
 30
0.0
  0
SPLINE
  5
1e1
100
AcDbEntity
  8
Layer_1
 62
7
100
AcDbSpline
 70
8
 71
3
 72
8
 73
4
 74
0
 40
0
 40
0
 40
0
 40
0
 40
1
 40
1
 40
1
 40
1
 10
4.941887
 20
6.631690
 30
0.0
 10
4.948561
 20
6.631690
 30
0.0
 10
4.956577
 20
6.628190
 30
0.0
 10
4.965935
 20
6.621192
 30
0.0
  0
LWPOLYLINE
  5
1e2
100
AcDbEntity
  8
Layer_1
 62
7
100
AcDbPolyline
 90
3
 70
0
 10
4.904656
 20
6.629370
 30
0.0
 10
4.904656
 20
6.596411
 30
0.0
 10
4.905144
 20
6.596411
 30
0.0
  0
SPLINE
  5
1e3
100
AcDbEntity
  8
Layer_1
 62
7
100
AcDbSpline
 70
8
 71
3
 72
8
 73
4
 74
0
 40
0
 40
0
 40
0
 40
0
 40
1
 40
1
 40
1
 40
1
 10
4.955926
 20
6.589087
 30
0.0
 10
4.946974
 20
6.594784
 30
0.0
 10
4.939812
 20
6.597632
 30
0.0
 10
4.934441
 20
6.597632
 30
0.0
  0
SPLINE
  5
1e4
100
AcDbEntity
  8
Layer_1
 62
7
100
AcDbSpline
 70
8
 71
3
 72
8
 73
4
 74
0
 40
0
 40
0
 40
0
 40
0
 40
1
 40
1
 40
1
 40
1
 10
4.934441
 20
6.597632
 30
0.0
 10
4.926059
 20
6.597632
 30
0.0
 10
4.918979
 20
6.592424
 30
0.0
 10
4.913201
 20
6.582007
 30
0.0
  0
SPLINE
  5
1e5
100
AcDbEntity
  8
Layer_1
 62
7
100
AcDbSpline
 70
8
 71
3
 72
8
 73
4
 74
0
 40
0
 40
0
 40
0
 40
0
 40
1
 40
1
 40
1
 40
1
 10
4.913201
 20
6.582007
 30
0.0
 10
4.907504
 20
6.571672
 30
0.0
 10
4.904656
 20
6.565649
 30
0.0
 10
4.904656
 20
6.563941
 30
0.0
  0
LWPOLYLINE
  5
1e6
100
AcDbEntity
  8
Layer_1
 62
7
100
AcDbPolyline
 90
2
 70
0
 10
4.965935
 20
6.621192
 30
0.0
 10
4.955926
 20
6.589087
 30
0.0
  0
LWPOLYLINE
  5
1e7
100
AcDbEntity
  8
Layer_1
 62
7
100
AcDbPolyline
 90
5
 70
0
 10
4.904656
 20
6.563941
 30
0.0
 10
4.904656
 20
6.514136
 30
0.0
 10
4.868402
 20
6.514136
 30
0.0
 10
4.868402
 20
6.629370
 30
0.0
 10
4.904656
 20
6.629370
 30
0.0
  0
SPLINE
  5
1e8
100
AcDbEntity
  8
Layer_1
 62
7
100
AcDbSpline
 70
8
 71
3
 72
8
 73
4
 74
0
 40
0
 40
0
 40
0
 40
0
 40
1
 40
1
 40
1
 40
1
 10
5.055413
 20
6.523413
 30
0.0
 10
5.046136
 20
6.515764
 30
0.0
 10
5.035475
 20
6.511939
 30
0.0
 10
5.023431
 20
6.511939
 30
0.0
  0
SPLINE
  5
1e9
100
AcDbEntity
  8
Layer_1
 62
7
100
AcDbSpline
 70
8
 71
3
 72
8
 73
4
 74
0
 40
0
 40
0
 40
0
 40
0
 40
1
 40
1
 40
1
 40
1
 10
5.023431
 20
6.511939
 30
0.0
 10
5.008050
 20
6.511939
 30
0.0
 10
4.995192
 20
6.517635
 30
0.0
 10
4.984857
 20
6.529028
 30
0.0
  0
SPLINE
  5
1ea
100
AcDbEntity
  8
Layer_1
 62
7
100
AcDbSpline
 70
8
 71
3
 72
8
 73
4
 74
0
 40
0
 40
0
 40
0
 40
0
 40
1
 40
1
 40
1
 40
1
 10
4.984857
 20
6.529028
 30
0.0
 10
4.974603
 20
6.540422
 30
0.0
 10
4.969476
 20
6.554704
 30
0.0
 10
4.969476
 20
6.571875
 30
0.0
  0
SPLINE
  5
1eb
100
AcDbEntity
  8
Layer_1
 62
7
100
AcDbSpline
 70
8
 71
3
 72
8
 73
4
 74
0
 40
0
 40
0
 40
0
 40
0
 40
1
 40
1
 40
1
 40
1
 10
4.969476
 20
6.571875
 30
0.0
 10
4.969476
 20
6.589453
 30
0.0
 10
4.974684
 20
6.603817
 30
0.0
 10
4.985101
 20
6.614966
 30
0.0
  0
SPLINE
  5
1ec
100
AcDbEntity
  8
Layer_1
 62
7
100
AcDbSpline
 70
8
 71
3
 72
8
 73
4
 74
0
 40
0
 40
0
 40
0
 40
0
 40
1
 40
1
 40
1
 40
1
 10
4.985101
 20
6.614966
 30
0.0
 10
4.995599
 20
6.626115
 30
0.0
 10
5.009027
 20
6.631690
 30
0.0
 10
5.025384
 20
6.631690
 30
0.0
  0
SPLINE
  5
1ed
100
AcDbEntity
  8
Layer_1
 62
7
100
AcDbSpline
 70
8
 71
3
 72
8
 73
4
 74
0
 40
0
 40
0
 40
0
 40
0
 40
1
 40
1
 40
1
 40
1
 10
5.025384
 20
6.631690
 30
0.0
 10
5.035557
 20
6.631690
 30
0.0
 10
5.045566
 20
6.629248
 30
0.0
 10
5.055413
 20
6.624365
 30
0.0
  0
LWPOLYLINE
  5
1ee
100
AcDbEntity
  8
Layer_1
 62
7
100
AcDbPolyline
 90
4
 70
0
 10
5.091668
 20
6.684668
 30
0.0
 10
5.091668
 20
6.514136
 30
0.0
 10
5.055413
 20
6.514136
 30
0.0
 10
5.055413
 20
6.523413
 30
0.0
  0
LWPOLYLINE
  5
1ef
100
AcDbEntity
  8
Layer_1
 62
7
100
AcDbPolyline
 90
3
 70
0
 10
5.055413
 20
6.624365
 30
0.0
 10
5.055413
 20
6.684668
 30
0.0
 10
5.091668
 20
6.684668
 30
0.0
  0
SPLINE
  5
1f0
100
AcDbEntity
  8
Layer_1
 62
7
100
AcDbSpline
 70
8
 71
3
 72
8
 73
4
 74
0
 40
0
 40
0
 40
0
 40
0
 40
1
 40
1
 40
1
 40
1
 10
5.055413
 20
6.600684
 30
0.0
 10
5.048822
 20
6.605160
 30
0.0
 10
5.042067
 20
6.607398
 30
0.0
 10
5.035150
 20
6.607398
 30
0.0
  0
SPLINE
  5
1f1
100
AcDbEntity
  8
Layer_1
 62
7
100
AcDbSpline
 70
8
 71
3
 72
8
 73
4
 74
0
 40
0
 40
0
 40
0
 40
0
 40
1
 40
1
 40
1
 40
1
 10
5.035150
 20
6.607398
 30
0.0
 10
5.026035
 20
6.607398
 30
0.0
 10
5.018914
 20
6.604224
 30
0.0
 10
5.013787
 20
6.597876
 30
0.0
  0
SPLINE
  5
1f2
100
AcDbEntity
  8
Layer_1
 62
7
100
AcDbSpline
 70
8
 71
3
 72
8
 73
4
 74
0
 40
0
 40
0
 40
0
 40
0
 40
1
 40
1
 40
1
 40
1
 10
5.013787
 20
6.597876
 30
0.0
 10
5.008742
 20
6.591528
 30
0.0
 10
5.006219
 20
6.582617
 30
0.0
 10
5.006219
 20
6.571143
 30
0.0
  0
SPLINE
  5
1f3
100
AcDbEntity
  8
Layer_1
 62
7
100
AcDbSpline
 70
8
 71
3
 72
8
 73
4
 74
0
 40
0
 40
0
 40
0
 40
0
 40
1
 40
1
 40
1
 40
1
 10
5.006219
 20
6.571143
 30
0.0
 10
5.006219
 20
6.560563
 30
0.0
 10
5.008742
 20
6.552059
 30
0.0
 10
5.013787
 20
6.545630
 30
0.0
  0
SPLINE
  5
1f4
100
AcDbEntity
  8
Layer_1
 62
7
100
AcDbSpline
 70
8
 71
3
 72
8
 73
4
 74
0
 40
0
 40
0
 40
0
 40
0
 40
1
 40
1
 40
1
 40
1
 10
5.013787
 20
6.545630
 30
0.0
 10
5.018833
 20
6.539282
 30
0.0
 10
5.025547
 20
6.536109
 30
0.0
 10
5.033929
 20
6.536109
 30
0.0
  0
SPLINE
  5
1f5
100
AcDbEntity
  8
Layer_1
 62
7
100
AcDbSpline
 70
8
 71
3
 72
8
 73
4
 74
0
 40
0
 40
0
 40
0
 40
0
 40
1
 40
1
 40
1
 40
1
 10
5.033929
 20
6.536109
 30
0.0
 10
5.041335
 20
6.536109
 30
0.0
 10
5.048496
 20
6.539282
 30
0.0
 10
5.055413
 20
6.545630
 30
0.0
  0
LWPOLYLINE
  5
1f6
100
AcDbEntity
  8
Layer_1
 62
7
100
AcDbPolyline
 90
2
 70
0
 10
5.055413
 20
6.545630
 30
0.0
 10
5.055413
 20
6.600684
 30
0.0
  0
LWPOLYLINE
  5
1f7
100
AcDbEntity
  8
Layer_1
 62
7
100
AcDbPolyline
 90
1
 70
1
 10
5.055413
 20
6.545630
 30
0.0
  0
ENDSEC
  0
SECTION
  2
OBJECTS
  0
DICTIONARY
  5
C
330
0
100
AcDbDictionary
  3
ACAD_GROUP
350
D
  3
ACAD_MLINESTYLE
350
17
  0
DICTIONARY
  5
D
330
C
100
AcDbDictionary
  0
DICTIONARY
  5
1A
330
C
100
AcDbDictionary
  0
DICTIONARY
  5
17
330
C
100
AcDbDictionary
  3
STANDARD
350
18
  0
DICTIONARY
  5
19
330
C
100
AcDbDictionary
  0
ENDSEC
  0
EOF
